<?xml version="1.0" encoding="UTF-8" standalone="no"?>
<!-- Created with Inkscape (http://www.inkscape.org/) -->

<svg
   xmlns:dc="http://purl.org/dc/elements/1.1/"
   xmlns:cc="http://creativecommons.org/ns#"
   xmlns:rdf="http://www.w3.org/1999/02/22-rdf-syntax-ns#"
   xmlns:svg="http://www.w3.org/2000/svg"
   xmlns="http://www.w3.org/2000/svg"
   xmlns:sodipodi="http://sodipodi.sourceforge.net/DTD/sodipodi-0.dtd"
   xmlns:inkscape="http://www.inkscape.org/namespaces/inkscape"
   width="600"
   height="600"
   id="svg2"
   sodipodi:version="0.32"
   inkscape:version="0.48.5 r10040"
   version="1.0"
   sodipodi:docname="Circle_of_fifths_deluxe_4.svg"
   inkscape:output_extension="org.inkscape.output.svg.inkscape"
   style="display:inline"
   inkscape:export-filename="/home/stephent/tmp/Circle_of_fifths_deluxe.exp.2.png"
   inkscape:export-xdpi="90"
   inkscape:export-ydpi="90">
  <defs
     id="defs4">
    <filter
       inkscape:collect="always"
       id="filter3996">
      <feGaussianBlur
         inkscape:collect="always"
         stdDeviation="5.3247395"
         id="feGaussianBlur3998" />
    </filter>
  </defs>
  <sodipodi:namedview
     id="base"
     pagecolor="#ffffff"
     bordercolor="#666666"
     borderopacity="1.0"
     gridtolerance="10000"
     guidetolerance="10"
     objecttolerance="10"
     inkscape:pageopacity="1"
     inkscape:pageshadow="2"
     inkscape:zoom="1.23"
     inkscape:cx="35.862991"
     inkscape:cy="433.15789"
     inkscape:document-units="px"
     inkscape:current-layer="layer1"
     showgrid="false"
     width="600px"
     height="600px"
     inkscape:window-width="1920"
     inkscape:window-height="977"
     inkscape:window-x="0"
     inkscape:window-y="28"
     inkscape:showpageshadow="false"
     borderlayer="true"
     showborder="true"
     inkscape:grid-bbox="false"
     inkscape:guide-bbox="false"
     inkscape:window-maximized="1">
    <inkscape:grid
       type="xygrid"
       id="grid2656"
       visible="true"
       enabled="true" />
  </sodipodi:namedview>
  <metadata
     id="metadata7">
    <rdf:RDF>
      <cc:Work
         rdf:about="">
        <dc:format>image/svg+xml</dc:format>
        <dc:type
           rdf:resource="http://purl.org/dc/dcmitype/StillImage" />
        <dc:title></dc:title>
      </cc:Work>
      <cc:Work
         rdf:about="">
        <dc:format>image/svg+xml</dc:format>
        <dc:type
           rdf:resource="http://purl.org/dc/dcmitype/StillImage" />
      </cc:Work>
    </rdf:RDF>
  </metadata>
  <g
     inkscape:groupmode="layer"
     id="layer3"
     inkscape:label="circle"
     style="display:inline"
     sodipodi:insensitive="true">
    <path
       sodipodi:type="arc"
       style="opacity:0.07999998;fill:none;stroke:#000000;stroke-width:32.6225853;stroke-linecap:butt;stroke-linejoin:miter;stroke-miterlimit:4;stroke-opacity:1;stroke-dasharray:none;stroke-dashoffset:0;marker:none;visibility:visible;display:inline;overflow:visible"
       id="path3130"
       sodipodi:cx="303.04578"
       sodipodi:cy="280.79181"
       sodipodi:rx="158.59395"
       sodipodi:ry="158.59395"
       d="m 303.61956,122.1989 a 158.59395,158.59395 0 1 1 -0.003,-10e-6"
       sodipodi:start="4.7160069"
       sodipodi:end="10.999171"
       transform="matrix(1.0053631,0,0,1.0178135,-4.670816,-10.794147)"
       sodipodi:open="true" />
  </g>
  <g
     inkscape:groupmode="layer"
     id="layer1"
     inkscape:label="Major text"
     style="display:inline">
    <path
       style="font-size:36px;font-style:normal;font-variant:normal;font-weight:normal;font-stretch:normal;text-align:start;line-height:100%;text-anchor:start;fill:#7e0513;fill-opacity:1;fill-rule:nonzero;stroke:none;stroke-width:3;marker:none;visibility:visible;display:inline;overflow:visible;font-family:Garamond"
       d="m 309.39279,67.614845 c 0.14061,0.902365 0.21092,1.828145 0.21094,2.777344 -2e-5,0.187519 -0.006,0.439471 -0.0176,0.755859 -0.16408,0.03517 -0.28713,0.05275 -0.36914,0.05273 -0.0703,1.8e-5 -0.16994,-0.0117 -0.29883,-0.03516 -0.4922,-1.371075 -1.29494,-2.425761 -2.4082,-3.164063 -1.1133,-0.738259 -2.49025,-1.1074 -4.13086,-1.107422 -0.8672,2.2e-5 -1.59962,0.09963 -2.19727,0.298828 -1.05469,0.363303 -1.98047,0.867209 -2.77734,1.511719 -0.79688,0.632832 -1.47071,1.39455 -2.02148,2.285156 -0.55079,0.878924 -0.99024,1.951188 -1.31836,3.216797 -0.31641,1.25392 -0.47462,2.537122 -0.47461,3.84961 -10e-6,2.507821 0.38085,4.582037 1.14258,6.222656 0.76171,1.628909 1.80468,2.794924 3.1289,3.498047 1.32421,0.691407 2.66015,1.037109 4.00781,1.037109 l 0.82618,-0.01758 c 0.93748,-0.117187 1.57615,-0.228515 1.91601,-0.333984 0.85545,-0.246093 1.55858,-0.533202 2.10938,-0.861329 0.56248,-0.339841 1.1074,-0.81445 1.63476,-1.423828 0.53904,-0.609371 0.99608,-1.318355 1.3711,-2.126953 l 0.21093,-0.07031 c 0.0586,5e-6 0.14647,0.03516 0.26368,0.105468 -0.0117,0.281255 -0.0235,0.462896 -0.0352,0.544922 -0.49221,1.980472 -0.84963,3.333986 -1.07227,4.060547 -0.18752,0.04688 -0.42189,0.117188 -0.70312,0.210938 -1.37111,0.468749 -3.2051,0.703124 -5.50195,0.703125 -1.85158,-10e-7 -3.24025,-0.128907 -4.16602,-0.386719 -0.91407,-0.246094 -1.91602,-0.632812 -3.00586,-1.160156 -1.07813,-0.539061 -2.02735,-1.248045 -2.84766,-2.126953 -0.82031,-0.878903 -1.48242,-1.986323 -1.98632,-3.322266 -0.50391,-1.347648 -0.75586,-2.812491 -0.75586,-4.394531 0,-1.499988 0.19921,-2.806627 0.59765,-3.919922 0.39844,-1.124984 1.01367,-2.261702 1.84571,-3.410156 0.83202,-1.148419 1.81054,-2.103496 2.93554,-2.865235 1.13671,-0.761697 2.39648,-1.300759 3.7793,-1.617187 0.97264,-0.210915 2.3496,-0.316384 4.13086,-0.316407 1.30076,2.3e-5 2.52537,0.175805 3.67383,0.527344 1.14842,0.339866 1.91599,0.67385 2.30273,1.001953"
       id="text2190"
       inkscape:connector-curvature="0" />
    <path
       style="font-size:36px;font-style:normal;font-variant:normal;font-weight:normal;font-stretch:normal;text-align:start;line-height:100%;text-anchor:start;fill:#7e0513;fill-opacity:1;fill-rule:nonzero;stroke:none;stroke-width:3;marker:none;visibility:visible;display:inline;overflow:visible;font-family:Garamond"
       d="m 407.72403,94.230392 0.19336,2.671875 c 0.0703,0.808612 0.10544,1.359393 0.10547,1.652344 l -0.49219,0.08789 c -0.78518,-1.781231 -1.76369,-3.117168 -2.93555,-4.007813 -1.16017,-0.890603 -2.584,-1.335915 -4.27148,-1.335937 -2.06252,2.2e-5 -3.66798,0.251975 -4.81641,0.755859 -1.66407,0.714865 -3.0879,1.957051 -4.27148,3.726563 -1.1836,1.769547 -1.7754,3.902357 -1.77539,6.398437 -10e-6,1.44142 0.21679,2.73634 0.65039,3.88477 0.43359,1.14844 1.04296,2.22071 1.82812,3.21679 0.79687,0.98438 1.73437,1.83985 2.8125,2.56641 0.70312,0.48047 1.54101,0.84375 2.51368,1.08984 0.55076,0.12891 1.37107,0.19336 2.46093,0.19336 0.70311,0 1.48241,-0.0996 2.33789,-0.29883 0.85545,-0.19921 1.49998,-0.46288 1.9336,-0.79101 0.43357,-0.33984 0.72654,-0.7207 0.8789,-1.14258 0.16405,-0.42187 0.24608,-1.24218 0.2461,-2.46094 -2e-5,-2.02733 -0.13479,-3.20507 -0.4043,-3.5332 -0.26955,-0.33983 -1.11916,-0.56249 -2.54883,-0.66797 l -0.70312,-0.0527 -0.47461,0.0176 c -0.0703,-0.0117 -0.16408,-0.0293 -0.28125,-0.0527 l -0.26367,-0.43945 c -2e-5,-0.0586 0.041,-0.13476 0.12304,-0.22852 0.60936,-0.0937 1.93358,-0.14061 3.97266,-0.14062 0.45701,1e-5 1.20115,0.0117 2.23242,0.0352 l 1.81055,0.0703 1.63476,-0.0176 c 0.31638,10e-6 0.69724,0.0117 1.14258,0.0352 0.082,0.0117 0.13474,0.0352 0.1582,0.0703 0.0234,0.0234 0.0351,0.0703 0.0352,0.14062 -3e-5,0.12892 -0.0293,0.29298 -0.0879,0.49219 -0.49221,0.10548 -0.87307,0.15821 -1.14258,0.1582 l -1.14258,-0.0176 c -0.38674,1e-5 -0.69729,0.13478 -0.93164,0.4043 -0.11721,0.12892 -0.1758,0.56837 -0.17578,1.31836 l 0.0176,2.30273 c -2e-5,1.58204 -0.0645,2.58985 -0.19336,3.02344 -0.0703,0.25782 -0.21682,0.49219 -0.43945,0.70313 -0.22268,0.19922 -0.69143,0.43945 -1.40625,0.7207 -1.01955,0.41016 -1.94533,0.68555 -2.77735,0.82617 -1.54689,0.26953 -3.04103,0.4043 -4.48242,0.4043 -2.32032,0 -4.22462,-0.29297 -5.71289,-0.87891 -1.47657,-0.59765 -2.75391,-1.42382 -3.83203,-2.47851 -1.06641,-1.05469 -1.82813,-2.12109 -2.28516,-3.19922 -0.6914,-1.58202 -1.03711,-3.19335 -1.03711,-4.83399 0,-2.05076 0.53906,-4.05467 1.61719,-6.011715 1.08984,-1.968731 2.84179,-3.568339 5.25586,-4.798829 1.69921,-0.867164 4.0078,-1.300758 6.92578,-1.300781 2.01561,2.3e-5 3.66209,0.175804 4.93946,0.527344 1.28904,0.351585 2.30857,0.750022 3.05859,1.195312"
       id="text3347"
       inkscape:connector-curvature="0" />
    <path
       style="font-size:36px;font-style:normal;font-variant:normal;font-weight:normal;font-stretch:normal;text-align:start;line-height:100%;text-anchor:start;fill:#7e0513;fill-opacity:1;fill-rule:nonzero;stroke:none;stroke-width:3;marker:none;visibility:visible;display:inline;overflow:visible;font-family:Garamond"
       d="m 458.13507,187.35625 c 0.43359,-0.1875 0.9375,-0.31055 1.51172,-0.36914 0.83203,-0.0937 1.45312,-0.29297 1.86328,-0.59766 0.3164,-0.64453 0.47461,-2.28515 0.47461,-4.92187 l 0,-2.77735 0.0352,-1.66992 -0.0352,-1.23047 0.0352,-2.26758 -0.0527,-5.71289 c 0,-0.64451 -0.0937,-1.06638 -0.28125,-1.26562 -0.26953,-0.29295 -0.98438,-0.56248 -2.14453,-0.8086 -0.48047,-0.10544 -0.77344,-0.19919 -0.87891,-0.28125 -0.10547,-0.0937 -0.16992,-0.26365 -0.19335,-0.50976 0.26953,-0.0586 0.45703,-0.0879 0.5625,-0.0879 l 1.24804,0 0.65039,-0.0176 c 0.43359,2e-5 0.91406,0.0469 1.44141,0.14062 1.07812,0.0703 2.18554,0.1055 3.32226,0.10547 0.32812,3e-5 0.79687,-0.0175 1.40625,-0.0527 1.61718,-0.0937 2.77734,-0.1406 3.48047,-0.14063 1.41796,3e-5 2.75389,0.14065 4.00782,0.42188 1.2656,0.28127 2.56638,0.80275 3.90234,1.56445 0.83201,0.48049 1.68162,1.24221 2.54883,2.28516 0.87888,1.03127 1.54099,2.16212 1.98633,3.39258 0.457,1.21876 0.68552,2.59571 0.68554,4.13086 -2e-5,1.3711 -0.25198,2.73047 -0.75586,4.07812 -0.49221,1.34766 -1.18361,2.51954 -2.07422,3.51563 -0.89064,0.98437 -1.79299,1.72851 -2.70703,2.23242 -0.91408,0.49219 -2.30861,0.91992 -4.18359,1.2832 -0.77345,0.14062 -2.16212,0.21094 -4.16602,0.21094 -1.32423,0 -2.40235,-0.041 -3.23437,-0.12305 -0.32813,-0.0469 -0.6797,-0.0703 -1.05469,-0.0703 -0.0586,0 -0.12305,0.006 -0.19336,0.0176 l -7.17187,0.12304 -0.0352,-0.14062 c -0.0234,-0.0586 -0.0352,-0.12305 -0.0352,-0.19336 l 0.0352,-0.26367 m 8.94727,-0.68555 c 0.89061,0.30469 1.79295,0.45703 2.70703,0.45703 1.18358,0 2.34373,-0.18164 3.48047,-0.54492 1.1367,-0.375 2.13865,-0.89648 3.00586,-1.56445 0.87888,-0.67969 1.59959,-1.44141 2.16211,-2.28516 0.56247,-0.85546 0.96091,-1.62304 1.19531,-2.30273 0.3281,-0.99609 0.49216,-2.29101 0.49219,-3.88477 -3e-5,-1.52342 -0.32229,-3.0703 -0.9668,-4.64062 -0.44534,-1.08983 -1.23049,-2.1328 -2.35547,-3.12891 -1.1133,-0.99607 -2.43166,-1.72264 -3.95508,-2.17969 -1.52345,-0.46873 -3.16993,-0.7031 -4.93945,-0.70312 -1.21876,2e-5 -2.1211,0.13478 -2.70703,0.40429 -0.0703,0.0703 -0.14064,0.15237 -0.21094,0.2461 -0.0703,0.29299 -0.10548,0.56252 -0.10547,0.80859 -10e-6,0.15236 0.006,0.33401 0.0176,0.54492 0.0351,1.3594 0.0527,2.44924 0.0527,3.26953 l -0.0176,3.99024 c -1e-5,5.85938 0.10546,9.12305 0.3164,9.79101 0.22265,0.65626 0.83202,1.23047 1.82813,1.72266"
       id="text3351"
       inkscape:connector-curvature="0" />
    <path
       style="font-size:36px;font-style:normal;font-variant:normal;font-weight:normal;font-stretch:normal;text-align:start;line-height:100%;text-anchor:start;fill:#7e0513;fill-opacity:1;fill-rule:nonzero;stroke:none;stroke-width:3;marker:none;visibility:visible;display:inline;overflow:visible;font-family:Garamond"
       d="m 477.87912,286.24121 c 0.16406,-0.0937 0.31055,-0.14062 0.43945,-0.14062 l 0.4043,0 c 0.082,0 0.22266,-0.006 0.42187,-0.0176 0.90235,-0.082 1.43555,-0.16406 1.59961,-0.2461 0.41016,-0.22265 0.76172,-0.60937 1.05469,-1.16015 0.60937,-1.19531 1.29492,-2.88867 2.05664,-5.08008 0.36328,-1.04296 0.59179,-1.67577 0.68555,-1.89844 0.29296,-0.70311 0.57421,-1.44139 0.84375,-2.21484 l 1.65234,-4.62305 c 0.25781,-0.72654 0.8789,-2.39061 1.86328,-4.99219 0.24609,-0.65622 0.54491,-1.53513 0.89649,-2.63671 l 0.50976,-0.0352 0.61524,0.0176 c 0.50389,0.99611 0.9492,2.06838 1.33594,3.21679 0.21092,0.6094 0.55662,1.5176 1.03711,2.72461 l 2.67187,7.22461 1.42383,3.91992 c 0.74998,2.22657 1.24217,3.59766 1.47656,4.11329 0.23436,0.5039 0.45115,0.83789 0.65039,1.00195 0.0586,0.0469 0.27537,0.11719 0.65039,0.21094 0.3867,0.0937 0.65623,0.16406 0.8086,0.21093 0.53904,0.15235 0.91403,0.28125 1.125,0.38672 0.0469,0.12891 0.0703,0.22852 0.0703,0.29883 -3e-5,0.0586 -0.0176,0.14649 -0.0527,0.26367 -0.37502,0.0117 -0.63869,0.0176 -0.79101,0.0176 -0.59768,0 -1.65237,-0.0176 -3.16406,-0.0527 l -1.75782,-0.0527 -2.12695,0.0352 c -0.14064,0 -0.28712,-0.006 -0.43945,-0.0176 -0.14064,-0.0234 -0.26369,-0.0352 -0.36914,-0.0352 l -0.38672,0 c -0.12892,-0.0117 -0.24611,-0.0469 -0.35156,-0.10546 -2e-5,-0.16407 0.0293,-0.32227 0.0879,-0.47461 0.14061,-0.0703 0.26951,-0.11133 0.38671,-0.12305 l 1.84571,-0.12305 c 0.48045,-0.0234 0.84373,-0.0879 1.08984,-0.19336 0.0703,-0.21093 0.10545,-0.36914 0.10547,-0.47461 -2e-5,-0.21093 -0.15236,-0.75585 -0.45703,-1.63476 -0.21096,-0.58594 -0.39846,-1.14258 -0.5625,-1.66992 -0.15236,-0.52734 -0.77345,-2.26172 -1.86328,-5.20313 -0.48049,-0.082 -0.90236,-0.12304 -1.26563,-0.12305 l -3.76172,0.0352 -1.10742,-0.0176 c -0.39844,1e-5 -0.8379,0.0293 -1.31836,0.0879 -0.15235,0.35158 -0.25196,0.60353 -0.29883,0.75586 l -1.54687,4.83399 c -0.65626,1.83984 -0.98438,2.85351 -0.98438,3.04101 0,0.10547 0.0527,0.28125 0.15821,0.52735 0.24609,0.0703 0.57421,0.13476 0.98437,0.19336 l 2.39063,0.21093 c 0.1289,0.10547 0.19335,0.19922 0.19336,0.28125 -1e-5,0.0586 -0.0176,0.14649 -0.0527,0.26367 -0.52735,0.0117 -0.93165,0.0176 -1.21289,0.0176 -0.9375,0 -2.02735,-0.0293 -3.26953,-0.0879 -0.57422,-0.0234 -0.98438,-0.0351 -1.23047,-0.0351 -0.24609,0 -0.67383,0.0117 -1.2832,0.0351 -0.39844,0.0234 -0.68555,0.0352 -0.86133,0.0352 -0.28125,0 -0.64453,-0.0176 -1.08984,-0.0527 l 0,-0.10546 c 0,-0.082 0.0234,-0.19336 0.0703,-0.33399 m 8.38477,-10.54687 c 1.25389,0.0703 2.68358,0.10548 4.28906,0.10546 0.91405,2e-5 1.71678,-0.0293 2.4082,-0.0879 -0.1172,-0.45702 -0.25197,-0.88475 -0.4043,-1.2832 -0.76173,-2.03905 -1.1836,-3.16405 -1.26562,-3.375 l -1.59961,-4.06055 -0.17578,-0.3164 c -0.0703,0.14064 -0.32814,0.74416 -0.77344,1.81054 -0.75001,1.82815 -1.28907,3.25197 -1.61719,4.27149 -0.15235,0.45704 -0.31055,0.91407 -0.47461,1.37109 -0.16407,0.44533 -0.26954,0.76173 -0.3164,0.94922 -0.0352,0.17579 -0.0938,0.35743 -0.17578,0.54492 l 0.10547,0.0703"
       id="text3355"
       inkscape:connector-curvature="0" />
    <path
       style="font-size:36px;font-style:normal;font-variant:normal;font-weight:normal;font-stretch:normal;text-align:start;line-height:100%;text-anchor:start;fill:#7e0513;fill-opacity:1;fill-rule:nonzero;stroke:none;stroke-width:3;marker:none;visibility:visible;display:inline;overflow:visible;font-family:Garamond"
       d="m 459.9632,384.37033 c 0.11718,-0.10547 0.21679,-0.16992 0.29882,-0.19336 0.19922,-0.0586 0.53906,-0.10547 1.01954,-0.14062 1.13671,-0.0703 1.83983,-0.17578 2.10937,-0.31641 0.16406,-0.23437 0.24609,-0.5625 0.24609,-0.98437 l -0.0176,-1.23047 0.0176,-4.46485 -0.0351,-2.10937 0.0176,-4.41211 -0.0879,-5.00977 c -0.0117,-1.19529 -0.0879,-1.86912 -0.22852,-2.02148 -0.21094,-0.22264 -0.83789,-0.35154 -1.88086,-0.38672 -0.44531,-0.0117 -0.83789,-0.0469 -1.17773,-0.10547 -0.15235,-0.082 -0.22852,-0.18748 -0.22852,-0.31641 0,-0.0937 0.0293,-0.20505 0.0879,-0.33398 0.10547,-0.0586 0.19922,-0.0879 0.28125,-0.0879 0.16406,2e-5 0.36328,0.006 0.59766,0.0176 0.6914,0.0586 1.40624,0.0879 2.14453,0.0879 l 1.30078,-0.0352 3.09375,0.0703 c 1.54686,3e-5 2.75389,-0.0176 3.62109,-0.0527 0.86718,-0.0351 1.45311,-0.0527 1.75782,-0.0527 0.26951,2e-5 0.93748,0.0235 2.0039,0.0703 l 2.4961,-0.0176 0.29882,0.0527 1.45899,-0.0527 0.17578,0.0879 c 0.0586,0.0938 0.0996,0.19338 0.12305,0.29883 -2e-5,0.16408 -0.0293,0.41604 -0.0879,0.75586 -0.0469,0.33986 -0.0703,0.5508 -0.0703,0.63281 -2e-5,1.21877 0.041,2.25002 0.12305,3.09375 -0.0117,0.0703 -0.0469,0.11721 -0.10547,0.14063 -0.12892,1e-5 -0.24611,-0.0176 -0.35156,-0.0527 -0.12893,-0.22264 -0.30471,-0.61521 -0.52734,-1.17773 -0.21096,-0.56248 -0.53323,-1.21287 -0.9668,-1.95117 -0.29299,-0.49217 -0.5215,-0.78514 -0.68555,-0.87891 -0.16408,-0.0937 -0.50392,-0.1406 -1.01953,-0.14063 -0.10549,3e-5 -0.63869,-0.0117 -1.59961,-0.0351 -0.25783,-0.0117 -0.50978,-0.0176 -0.75586,-0.0176 l -5.00976,0.10547 -0.43946,0 c -0.64454,2e-5 -1.03126,0.082 -1.16015,0.24609 -0.19923,0.28127 -0.29884,1.10744 -0.29883,2.47852 -1e-5,0.14064 0.0293,1.54689 0.0879,4.21875 l 0,2.44336 c 0.1289,0.0352 0.26952,0.0527 0.42187,0.0527 l 0.29883,0 c 0.19921,10e-6 0.49218,0.006 0.87891,0.0176 0.60936,0.0235 1.01952,0.0352 1.23047,0.0352 0.14061,10e-6 0.26366,-0.006 0.36914,-0.0176 1.26561,-0.0469 2.89452,-0.0703 4.88672,-0.0703 0.62107,-0.10546 0.98435,-0.22851 1.08984,-0.36915 0.17576,-0.21092 0.30467,-0.7617 0.38672,-1.65234 0.0937,-0.89061 0.29295,-1.39451 0.59766,-1.51172 0.15232,2e-5 0.29295,0.0293 0.42187,0.0879 0.0234,0.0938 0.0351,0.18166 0.0352,0.26367 -2e-5,0.082 -0.0117,0.21682 -0.0352,0.4043 -0.0586,0.43361 -0.0879,1.79298 -0.0879,4.07813 -2e-5,0.60938 0.0293,1.28907 0.0879,2.03906 0.0703,0.75001 0.10545,1.1543 0.10547,1.21289 -2e-5,0.10548 -0.0176,0.2461 -0.0527,0.42187 -0.0938,0.0469 -0.16994,0.0703 -0.22851,0.0703 l -0.12305,0 c -0.18752,-0.32812 -0.36916,-0.83789 -0.54492,-1.5293 -0.3047,-1.18358 -0.62697,-1.92186 -0.9668,-2.21484 -0.32814,-0.30468 -0.8672,-0.45702 -1.61718,-0.45703 -0.16408,1e-5 -0.46291,0.0117 -0.89649,0.0351 -0.43361,0.0117 -1.07814,0.0176 -1.93359,0.0176 l -1.14258,0 c -1.62892,10e-6 -2.69532,0.0352 -3.19922,0.10547 l -0.0176,0.58008 0.0176,3.23437 -0.0176,2.03906 0.0176,1.98633 c 0.0117,1.19532 0.0879,1.88672 0.22852,2.07422 0.19921,0.25781 0.6328,0.38672 1.30078,0.38672 l 1.07226,-0.0176 c 0.0937,0 0.45702,0.0117 1.08985,0.0352 0.64452,0.0117 1.43553,0.0176 2.37304,0.0176 2.26171,0 3.76756,-0.0937 4.51758,-0.28125 0.74998,-0.19922 1.36522,-0.54492 1.84571,-1.03711 0.49216,-0.49219 1.1074,-1.55273 1.8457,-3.18164 0.22263,-0.48047 0.44529,-0.7207 0.66797,-0.72071 0.10544,1e-5 0.22263,0.0469 0.35156,0.14063 -0.33987,1.16016 -0.53323,1.92188 -0.58008,2.28515 -0.12893,0.82032 -0.2051,1.65821 -0.22851,2.51368 -3e-5,0.38672 -0.0938,0.70898 -0.28125,0.96679 l -0.38672,0 -4.93946,0.0527 -2.21484,-0.0176 -5.27344,0.0703 -2.14453,0 c -0.26954,0 -0.52149,0.006 -0.75586,0.0176 -2.10938,0.0937 -3.66211,0.14062 -4.6582,0.14062 -0.17578,0 -0.29883,-0.0293 -0.36914,-0.0879 -0.0586,-0.0586 -0.0879,-0.14648 -0.0879,-0.26367 l 0.0176,-0.17578"
       id="text3359"
       inkscape:connector-curvature="0" />
    <path
       style="font-size:36px;font-style:normal;font-variant:normal;font-weight:normal;font-stretch:normal;text-align:start;line-height:100%;text-anchor:start;fill:#7e0513;fill-opacity:1;fill-rule:nonzero;stroke:none;stroke-width:3;marker:none;visibility:visible;display:inline;overflow:visible;font-family:Garamond"
       d="m 388.74844,435.35263 0,-0.54492 c 0.19922,-0.0469 0.35742,-0.0761 0.47461,-0.0879 l 1.65235,-0.0879 c 1.37109,-0.11717 2.90624,-0.21092 4.60547,-0.28125 0.67968,-0.0234 1.75194,-0.0351 3.21679,-0.0352 1.99218,2e-5 3.45116,0.14651 4.37696,0.43945 1.34764,0.43362 2.34959,1.08987 3.00585,1.96875 0.66796,0.86721 1.00194,1.83401 1.00196,2.90039 -2e-5,1.7344 -1.23635,3.19338 -3.70899,4.37696 l -0.0879,0.14062 c 1.26561,0.33986 2.30272,0.81447 3.11133,1.42383 0.80858,0.60939 1.42967,1.35353 1.86328,2.23242 0.31639,0.64454 0.47459,1.48829 0.47461,2.53125 -2e-5,1.7461 -0.79689,3.30469 -2.39062,4.67578 -1.58205,1.35938 -3.7676,2.03907 -6.55664,2.03907 l -2.61914,0 -2.6543,0.0879 c -2.34376,0.0234 -3.71485,0.0351 -4.11328,0.0351 -0.41016,0 -0.81446,-0.0176 -1.21289,-0.0527 l 0,-0.19336 c 0,-0.14062 0.0293,-0.24023 0.0879,-0.29883 0.0703,-0.0703 0.20507,-0.1289 0.40429,-0.17578 1.46485,-0.30469 2.29102,-0.50976 2.47852,-0.61523 0.19921,-0.11719 0.33398,-0.29883 0.4043,-0.54493 0.14062,-0.46874 0.21093,-1.67577 0.21093,-3.62109 0,-0.17577 -0.006,-0.39843 -0.0176,-0.66797 -0.0235,-0.78515 -0.0352,-1.23632 -0.0352,-1.35351 l 0,-1.82813 c 0,-3.09374 -0.0352,-5.79491 -0.10547,-8.10351 l -0.0176,-3.53321 -0.0176,-0.43945 c -0.99609,-0.1406 -1.875,-0.22849 -2.63671,-0.26367 -0.49219,-0.0117 -0.89063,-0.0527 -1.19532,-0.12305 m 6.97852,8.89453 c 0.58593,0.1172 1.20116,0.1758 1.8457,0.17578 2.53124,2e-5 4.24804,-0.55662 5.15039,-1.66992 0.90233,-1.11326 1.3535,-2.22069 1.35352,-3.32226 -2e-5,-0.49217 -0.082,-0.99022 -0.2461,-1.49415 -0.15235,-0.5156 -0.4336,-0.97849 -0.84375,-1.38867 -0.39845,-0.41013 -0.89649,-0.71482 -1.49414,-0.91406 -1.01954,-0.33982 -2.06251,-0.50974 -3.1289,-0.50977 -0.9961,3e-5 -1.92189,0.11136 -2.77735,0.33399 -0.0117,0.24611 -0.0176,0.42775 -0.0176,0.54492 -1e-5,0.11721 0.0117,0.45119 0.0351,1.00195 0.0117,0.35159 0.0176,0.70315 0.0176,1.05469 l -0.0527,2.12695 0.0176,1.26563 0.12305,2.47852 0.0176,0.3164 m 4.13086,11.95313 c 1.16014,-0.082 2.1328,-0.32813 2.91797,-0.73828 0.36326,-0.1875 0.791,-0.52149 1.2832,-1.00196 0.50389,-0.49218 0.89061,-1.07812 1.16016,-1.75781 0.28123,-0.67968 0.42185,-1.33593 0.42187,-1.96875 -2e-5,-0.48046 -0.0996,-1.07226 -0.29883,-1.77539 -0.18751,-0.70312 -0.51564,-1.31835 -0.98437,-1.8457 -0.45705,-0.53906 -1.14259,-0.97851 -2.05664,-1.31836 -0.91408,-0.35155 -1.92189,-0.52734 -3.02344,-0.52735 -2.13282,1e-5 -3.32813,0.041 -3.58594,0.12305 -0.0117,0.26954 -0.0176,0.46876 -0.0176,0.59766 l 0.0176,0.65039 -0.0176,1.31836 0,1.49414 c 0.0351,2.75391 0.0996,4.38281 0.19336,4.88672 0.0937,0.5039 0.41015,0.9375 0.94922,1.30078 0.55078,0.36328 1.56445,0.55078 3.04102,0.5625"
       id="text3363"
       inkscape:connector-curvature="0" />
    <path
       style="font-size:36px;font-style:normal;font-variant:normal;font-weight:normal;font-stretch:normal;text-align:start;line-height:100%;text-anchor:start;fill:#7e0513;fill-opacity:1;fill-rule:nonzero;stroke:none;stroke-width:3;marker:none;visibility:visible;display:inline;overflow:visible;font-family:Garamond"
       d="m 192.37599,115.71965 0.0176,-0.43945 c 0.25781,-0.12891 0.68555,-0.24024 1.2832,-0.33399 0.60938,-0.10547 1.02539,-0.20507 1.24805,-0.29883 0.23437,-0.10546 0.42773,-0.24023 0.58008,-0.40429 0.10546,-0.51563 0.1582,-1.44727 0.1582,-2.79492 l -0.24609,-13.675785 0.0527,-2.267578 c 0,-0.46873 -0.0879,-0.790995 -0.26367,-0.966797 -0.16407,-0.175761 -0.60352,-0.333963 -1.31836,-0.47461 -0.71485,-0.152322 -1.13672,-0.275369 -1.26562,-0.36914 -0.12891,-0.09373 -0.19336,-0.193338 -0.19336,-0.298828 0,-0.05857 0.0176,-0.134744 0.0527,-0.228516 0.15234,-0.09373 0.31055,-0.140603 0.47461,-0.140625 0.17578,2.2e-5 0.5332,0.01174 1.07227,0.03516 l 0.49218,0 c 0.16406,2.3e-5 0.62695,-0.0117 1.38867,-0.03516 l 2.44336,0 5.04493,-0.08789 5.34375,-0.210937 0.47461,0 0.75585,-0.01758 c 0.21092,2.2e-5 0.39842,0.05862 0.5625,0.175781 0.0703,0.187522 0.11131,0.322288 0.12305,0.404297 l -0.0176,0.703125 0.15821,3.146484 c -2e-5,0.128925 -0.0117,0.292987 -0.0352,0.492188 -0.18752,0.08205 -0.35744,0.123064 -0.50977,0.123047 -0.10548,1.7e-5 -0.18751,-0.03514 -0.24609,-0.105469 -0.0938,-0.128889 -0.15236,-0.374982 -0.17578,-0.738281 -0.0469,-0.503888 -0.22853,-1.154278 -0.54492,-1.951172 -0.15236,-0.374979 -0.40432,-0.632792 -0.75586,-0.773438 -0.70314,-0.26951 -1.88674,-0.404275 -3.55078,-0.404297 -0.78517,2.2e-5 -1.51759,0.02346 -2.19727,0.07031 -0.6797,0.03518 -1.09571,0.05276 -1.24805,0.05273 l -1.37109,-0.01758 c -0.56251,2.2e-5 -1.0254,0.08205 -1.38867,0.246094 -0.2461,0.10549 -0.36915,0.357443 -0.36914,0.755859 l 0,0.263672 c 0.0351,0.597676 0.0527,1.259785 0.0527,1.986328 l -0.0527,4.781248 c -1e-5,0.46877 0.0351,0.91408 0.10547,1.33594 l 0.50976,0.0352 0.98438,-0.0527 3.35742,0 c 1.34764,1e-5 2.28514,-0.0937 2.8125,-0.28125 0.35155,-0.12889 0.61522,-0.32225 0.79102,-0.58008 0.0586,-0.082 0.20506,-0.5449 0.43945,-1.38867 l 0.22851,-1.458983 c 0.14061,-0.0703 0.24608,-0.105453 0.31641,-0.105469 0.0586,1.6e-5 0.15233,0.02931 0.28125,0.08789 0.0469,0.269547 0.0762,0.679702 0.0879,1.230472 l 0.21094,6.46875 c -0.19924,0.082 -0.35158,0.12305 -0.45703,0.12304 l -0.19336,-0.0352 c -0.18752,-1.17187 -0.48049,-2.09179 -0.87891,-2.75977 -0.14064,-0.23436 -0.29884,-0.36913 -0.47461,-0.40429 -0.3047,-0.0703 -1.69923,-0.10546 -4.18359,-0.10547 -0.77345,1e-5 -1.30665,0.006 -1.59961,0.0176 -0.70313,0.0352 -1.12501,0.0527 -1.26563,0.0527 l -0.17578,0 c -0.35157,1e-5 -0.60352,0.0469 -0.75586,0.14062 -0.0469,0.14064 -0.0703,0.24025 -0.0703,0.29883 l 0,1.21289 c -10e-6,0.14064 0.006,0.72657 0.0176,1.75782 l -0.0352,5.81836 c 0,0.16406 0.0469,0.36914 0.14063,0.61523 0.24608,0.19922 0.6914,0.33399 1.33594,0.4043 0.65624,0.0586 1.27147,0.21093 1.8457,0.45703 0.32811,0.15234 0.49218,0.32226 0.49219,0.50976 -1e-5,0.082 -0.0234,0.15821 -0.0703,0.22852 -0.0469,0.0703 -0.12891,0.12305 -0.24609,0.1582 -0.96095,-0.19922 -2.29102,-0.29883 -3.99023,-0.29883 -0.90235,0 -1.85743,0.082 -2.86524,0.2461 -0.69141,0.10547 -1.48242,0.1582 -2.37305,0.1582 l -0.35156,-0.0879"
       id="text3387"
       inkscape:connector-curvature="0" />
    <path
       style="font-size:36px;font-style:normal;font-variant:normal;font-weight:normal;font-stretch:normal;text-align:start;line-height:100%;text-anchor:start;fill:#7e0513;fill-opacity:1;fill-rule:nonzero;stroke:none;stroke-width:3;marker:none;visibility:visible;display:inline;overflow:visible;font-family:Garamond"
       d="m 183.4258,456.6749 c 0.43359,-0.1875 0.9375,-0.31055 1.51172,-0.36914 0.83202,-0.0937 1.45312,-0.29297 1.86328,-0.59766 0.3164,-0.64453 0.4746,-2.28515 0.47461,-4.92188 l 0,-2.77734 0.0352,-1.66992 -0.0352,-1.23047 0.0352,-2.26758 -0.0527,-5.71289 c -1e-5,-0.64451 -0.0938,-1.06638 -0.28125,-1.26562 -0.26954,-0.29295 -0.98438,-0.56248 -2.14453,-0.8086 -0.48047,-0.10544 -0.77344,-0.19919 -0.87891,-0.28125 -0.10547,-0.0937 -0.16992,-0.26365 -0.19336,-0.50976 0.26953,-0.0586 0.45703,-0.0879 0.5625,-0.0879 l 1.24805,0 0.65039,-0.0176 c 0.43359,2e-5 0.91406,0.0469 1.4414,0.14062 1.07812,0.0703 2.18554,0.10549 3.32227,0.10547 0.32812,2e-5 0.79687,-0.0176 1.40625,-0.0527 1.61718,-0.0937 2.77733,-0.1406 3.48047,-0.14063 1.41795,3e-5 2.75389,0.14065 4.00781,0.42188 1.26561,0.28127 2.56639,0.80275 3.90235,1.56445 0.832,0.48049 1.68161,1.24221 2.54882,2.28516 0.87889,1.03126 1.54099,2.16212 1.98633,3.39257 0.45701,1.21877 0.68552,2.59572 0.68555,4.13086 -3e-5,1.37111 -0.25198,2.73048 -0.75586,4.07813 -0.49221,1.34766 -1.18362,2.51954 -2.07422,3.51562 -0.89065,0.98438 -1.79299,1.72852 -2.70703,2.23243 -0.91408,0.49218 -2.30861,0.91992 -4.18359,1.2832 -0.77346,0.14062 -2.16213,0.21094 -4.16602,0.21094 -1.32423,0 -2.40235,-0.041 -3.23438,-0.12305 -0.32813,-0.0469 -0.67969,-0.0703 -1.05468,-0.0703 -0.0586,0 -0.12306,0.006 -0.19336,0.0176 l -7.17188,0.12304 -0.0351,-0.14062 c -0.0234,-0.0586 -0.0352,-0.12305 -0.0352,-0.19336 l 0.0352,-0.26367 m 8.94726,-0.68555 c 0.89062,0.30469 1.79296,0.45703 2.70703,0.45703 1.18358,0 2.34374,-0.18164 3.48047,-0.54492 1.1367,-0.375 2.13866,-0.89648 3.00586,-1.56445 0.87889,-0.67969 1.59959,-1.44141 2.16211,-2.28516 0.56248,-0.85546 0.96092,-1.62304 1.19531,-2.30274 0.32811,-0.99608 0.49217,-2.291 0.49219,-3.88476 -2e-5,-1.52343 -0.32229,-3.0703 -0.9668,-4.64063 -0.44533,-1.08982 -1.23048,-2.13279 -2.35546,-3.1289 -1.1133,-0.99608 -2.43166,-1.72264 -3.95508,-2.17969 -1.52345,-0.46873 -3.16994,-0.7031 -4.93946,-0.70312 -1.21875,2e-5 -2.1211,0.13478 -2.70703,0.40429 -0.0703,0.0703 -0.14063,0.15237 -0.21093,0.2461 -0.0703,0.29299 -0.10548,0.56252 -0.10547,0.80859 -1e-5,0.15236 0.006,0.334 0.0176,0.54492 0.0352,1.3594 0.0527,2.44924 0.0527,3.26953 l -0.0176,3.99024 c -1e-5,5.85938 0.10546,9.12305 0.31641,9.79101 0.22265,0.65626 0.83202,1.23047 1.82812,1.72266"
       id="text3371"
       inkscape:connector-curvature="0" />
    <path
       style="font-size:48px;font-style:normal;font-variant:normal;font-weight:normal;font-stretch:normal;text-align:start;line-height:100%;text-anchor:start;fill:#7e0513;fill-opacity:1;fill-rule:nonzero;stroke:none;stroke-width:3;marker:none;visibility:visible;display:inline;overflow:visible;font-family:NWCV15"
       d="m 213.19728,449.72568 0,6.5625 1.14844,-1.33594 c 0.45312,-0.54688 0.875,-1.09375 1.26562,-1.64063 0.1875,-0.28125 0.35937,-0.54687 0.51563,-0.79687 0.12499,-0.23438 0.27343,-0.50781 0.44531,-0.82031 0.125,-0.26563 0.25,-0.55469 0.375,-0.86719 0.0937,-0.1875 0.14062,-0.38281 0.14063,-0.58594 -1e-5,-0.3125 -0.0469,-0.625 -0.14063,-0.9375 -0.0937,-0.32812 -0.21094,-0.57812 -0.35156,-0.75 -0.12501,-0.18749 -0.29688,-0.32812 -0.51563,-0.42187 -0.21875,-0.0625 -0.46094,-0.10937 -0.72656,-0.14063 -0.46875,10e-6 -0.94531,0.21876 -1.42969,0.65625 -0.48437,0.42188 -0.72656,0.78125 -0.72656,1.07813 m -1.19531,9.16406 0,-26.29688 1.19531,0 0,15.35157 c 1.25,-0.98437 2.42187,-1.47656 3.51563,-1.47657 0.49999,1e-5 0.97655,0.14064 1.42968,0.42188 0.48437,0.3125 0.88281,0.72657 1.19532,1.24219 0.29686,0.54688 0.4453,1.09375 0.44531,1.64062 -1e-5,0.875 -0.38282,1.75782 -1.14844,2.64844 -0.40626,0.48437 -0.88282,1.03125 -1.42969,1.64062 -0.54688,0.60938 -1.03125,1.10156 -1.45312,1.47657 l -3.75,3.35156"
       id="text3477"
       inkscape:connector-curvature="0" />
    <path
       style="font-size:36px;font-style:normal;font-variant:normal;font-weight:normal;font-stretch:normal;text-align:start;line-height:100%;text-anchor:start;fill:#7e0513;fill-opacity:1;fill-rule:nonzero;stroke:none;stroke-width:3;marker:none;visibility:visible;display:inline;overflow:visible;font-family:Garamond"
       d="m 111.92104,384.81857 c 0.16407,-0.0937 0.31055,-0.14062 0.43946,-0.14062 l 0.40429,0 c 0.082,0 0.22266,-0.006 0.42188,-0.0176 0.90234,-0.082 1.43554,-0.16406 1.59961,-0.24609 0.41015,-0.22266 0.76171,-0.60938 1.05469,-1.16016 0.60937,-1.19531 1.29491,-2.88867 2.05664,-5.08008 0.36327,-1.04296 0.59179,-1.67577 0.68554,-1.89844 0.29296,-0.70311 0.57421,-1.44139 0.84375,-2.21484 l 1.65235,-4.62305 c 0.2578,-0.72654 0.87889,-2.3906 1.86328,-4.99218 0.24608,-0.65623 0.54491,-1.53514 0.89648,-2.63672 l 0.50977,-0.0352 0.61523,0.0176 c 0.5039,0.99612 0.94921,2.06838 1.33594,3.2168 0.21092,0.60939 0.55663,1.51759 1.03711,2.72461 l 2.67187,7.2246 1.42383,3.91993 c 0.74998,2.22656 1.24217,3.59766 1.47656,4.11328 0.23436,0.50391 0.45116,0.83789 0.6504,1.00195 0.0586,0.0469 0.27536,0.11719 0.65039,0.21094 0.38669,0.0937 0.65622,0.16406 0.80859,0.21094 0.53904,0.15234 0.91404,0.28125 1.125,0.38671 0.0469,0.12891 0.0703,0.22852 0.0703,0.29883 -2e-5,0.0586 -0.0176,0.14649 -0.0527,0.26367 -0.37503,0.0117 -0.6387,0.0176 -0.79102,0.0176 -0.59768,0 -1.65236,-0.0176 -3.16406,-0.0527 l -1.75781,-0.0527 -2.12696,0.0352 c -0.14064,0 -0.28712,-0.006 -0.43945,-0.0176 -0.14064,-0.0234 -0.26369,-0.0351 -0.36914,-0.0351 l -0.38672,0 c -0.12892,-0.0117 -0.24611,-0.0469 -0.35156,-0.10547 -2e-5,-0.16406 0.0293,-0.32227 0.0879,-0.47461 0.14061,-0.0703 0.26952,-0.11133 0.38672,-0.12305 l 1.8457,-0.12305 c 0.48045,-0.0234 0.84373,-0.0879 1.08985,-0.19336 0.0703,-0.21093 0.10545,-0.36913 0.10546,-0.4746 -1e-5,-0.21094 -0.15236,-0.75586 -0.45703,-1.63477 -0.21095,-0.58593 -0.39845,-1.14257 -0.5625,-1.66992 -0.15236,-0.52734 -0.77345,-2.26171 -1.86328,-5.20313 -0.48048,-0.082 -0.90236,-0.12303 -1.26562,-0.12304 l -3.76172,0.0351 -1.10742,-0.0176 c -0.39845,1e-5 -0.8379,0.0293 -1.31836,0.0879 -0.15235,0.35158 -0.25196,0.60353 -0.29883,0.75586 l -1.54688,4.83399 c -0.65625,1.83985 -0.98438,2.85352 -0.98437,3.04101 -1e-5,0.10547 0.0527,0.28126 0.1582,0.52735 0.24609,0.0703 0.57421,0.13476 0.98438,0.19336 l 2.39062,0.21093 c 0.1289,0.10547 0.19335,0.19922 0.19336,0.28125 -10e-6,0.0586 -0.0176,0.14649 -0.0527,0.26368 -0.52736,0.0117 -0.93165,0.0176 -1.21289,0.0176 -0.93751,0 -2.02735,-0.0293 -3.26954,-0.0879 -0.57422,-0.0234 -0.98437,-0.0351 -1.23046,-0.0351 -0.2461,0 -0.67383,0.0117 -1.28321,0.0351 -0.39844,0.0234 -0.68555,0.0352 -0.86133,0.0352 -0.28125,0 -0.64453,-0.0176 -1.08984,-0.0527 l 0,-0.10547 c 0,-0.082 0.0234,-0.19336 0.0703,-0.33399 m 8.38477,-10.54687 c 1.2539,0.0703 2.68358,0.10548 4.28906,0.10547 0.91405,10e-6 1.71678,-0.0293 2.4082,-0.0879 -0.1172,-0.45702 -0.25196,-0.88476 -0.40429,-1.28321 -0.76173,-2.03905 -1.18361,-3.16404 -1.26563,-3.375 l -1.59961,-4.06054 -0.17578,-0.31641 c -0.0703,0.14064 -0.32813,0.74416 -0.77344,1.81055 -0.75001,1.82814 -1.28907,3.25196 -1.61718,4.27148 -0.15236,0.45705 -0.31056,0.91408 -0.47461,1.37109 -0.16407,0.44533 -0.26954,0.76174 -0.31641,0.94922 -0.0352,0.1758 -0.0938,0.35744 -0.17578,0.54493 l 0.10547,0.0703"
       id="text3375"
       inkscape:connector-curvature="0" />
    <path
       style="font-size:48px;font-style:normal;font-variant:normal;font-weight:normal;font-stretch:normal;text-align:start;line-height:100%;text-anchor:start;fill:#7e0513;fill-opacity:1;fill-rule:nonzero;stroke:none;stroke-width:3;marker:none;visibility:visible;display:inline;overflow:visible;font-family:NWCV15"
       d="m 140.40932,377.56174 0,6.5625 1.14843,-1.33594 c 0.45313,-0.54688 0.875,-1.09375 1.26563,-1.64063 0.1875,-0.28125 0.35937,-0.54687 0.51562,-0.79687 0.125,-0.23438 0.27344,-0.50781 0.44532,-0.82031 0.12499,-0.26563 0.24999,-0.55469 0.375,-0.86719 0.0937,-0.1875 0.14062,-0.38281 0.14062,-0.58594 0,-0.3125 -0.0469,-0.625 -0.14062,-0.9375 -0.0938,-0.32812 -0.21095,-0.57812 -0.35157,-0.75 -0.125,-0.18749 -0.29687,-0.32812 -0.51562,-0.42187 -0.21875,-0.0625 -0.46094,-0.10937 -0.72656,-0.14063 -0.46876,10e-6 -0.94532,0.21876 -1.42969,0.65625 -0.48438,0.42188 -0.72656,0.78125 -0.72656,1.07813 m -1.19532,9.16406 0,-26.29688 1.19532,0 0,15.35157 c 1.24999,-0.98437 2.42187,-1.47656 3.51562,-1.47657 0.5,10e-6 0.97656,0.14063 1.42969,0.42188 0.48437,0.3125 0.8828,0.72657 1.19531,1.24219 0.29687,0.54688 0.44531,1.09375 0.44531,1.64062 0,0.875 -0.38282,1.75781 -1.14843,2.64844 -0.40626,0.48437 -0.88282,1.03125 -1.42969,1.64062 -0.54688,0.60938 -1.03125,1.10156 -1.45313,1.47657 l -3.75,3.35156"
       id="text3481"
       inkscape:connector-curvature="0" />
    <path
       style="font-size:36px;font-style:normal;font-variant:normal;font-weight:normal;font-stretch:normal;text-align:start;line-height:100%;text-anchor:start;fill:#7e0513;fill-opacity:1;fill-rule:nonzero;stroke:none;stroke-width:3;marker:none;visibility:visible;display:inline;overflow:visible;font-family:Garamond"
       d="m 84.676582,285.79297 c 0.117187,-0.10547 0.216796,-0.16992 0.298828,-0.19336 0.199218,-0.0586 0.539061,-0.10547 1.019532,-0.14063 1.136715,-0.0703 1.839839,-0.17578 2.109375,-0.3164 0.164058,-0.23438 0.246089,-0.5625 0.246093,-0.98438 l -0.01758,-1.23047 0.01758,-4.46484 -0.03516,-2.10937 0.01758,-4.41211 -0.08789,-5.00977 c -0.01172,-1.19529 -0.08789,-1.86912 -0.228516,-2.02148 -0.210941,-0.22264 -0.837894,-0.35154 -1.880859,-0.38672 -0.445315,-0.0117 -0.837892,-0.0469 -1.177735,-0.10547 -0.152344,-0.082 -0.228516,-0.18748 -0.228515,-0.31641 -10e-7,-0.0937 0.0293,-0.20505 0.08789,-0.33398 0.105468,-0.0586 0.199218,-0.0879 0.28125,-0.0879 0.164061,2e-5 0.36328,0.006 0.597657,0.0176 0.691403,0.0586 1.406246,0.0879 2.144531,0.0879 l 1.300781,-0.0352 3.09375,0.0703 c 1.546865,2e-5 2.753895,-0.0176 3.621094,-0.0527 0.867174,-0.0351 1.453111,-0.0527 1.757812,-0.0527 0.269518,3e-5 0.937486,0.0235 2.003907,0.0703 l 2.496093,-0.0176 0.29883,0.0527 1.45898,-0.0527 0.17579,0.0879 c 0.0586,0.0938 0.0996,0.19338 0.12304,0.29883 -2e-5,0.16408 -0.0293,0.41603 -0.0879,0.75586 -0.0469,0.33986 -0.0703,0.5508 -0.0703,0.63281 -2e-5,1.21877 0.041,2.25002 0.12305,3.09375 -0.0117,0.0703 -0.0469,0.1172 -0.10547,0.14062 -0.12893,2e-5 -0.24612,-0.0176 -0.35156,-0.0527 -0.12893,-0.22264 -0.30471,-0.61522 -0.52735,-1.17773 -0.21095,-0.56249 -0.53322,-1.21288 -0.9668,-1.95118 -0.29298,-0.49216 -0.5215,-0.78513 -0.68554,-0.8789 -0.16408,-0.0937 -0.50393,-0.14061 -1.01953,-0.14063 -0.10549,2e-5 -0.638693,-0.0117 -1.599615,-0.0351 -0.257827,-0.0117 -0.50978,-0.0176 -0.755859,-0.0176 l -5.009766,0.10547 -0.439453,0 c -0.644539,2e-5 -1.031258,0.082 -1.160156,0.24609 -0.199226,0.28127 -0.298836,1.10744 -0.298828,2.47852 -8e-6,0.14064 0.02929,1.54689 0.08789,4.21875 l 0,2.44335 c 0.128899,0.0352 0.269524,0.0528 0.421875,0.0527 l 0.298829,0 c 0.19921,10e-6 0.492178,0.006 0.878906,0.0176 0.609365,0.0235 1.019521,0.0352 1.230469,0.0351 0.140614,2e-5 0.263661,-0.006 0.36914,-0.0176 1.265613,-0.0469 2.894518,-0.0703 4.886719,-0.0703 0.621079,-0.10545 0.984359,-0.2285 1.089849,-0.36914 0.17576,-0.21092 0.30467,-0.7617 0.38672,-1.65234 0.0937,-0.89061 0.29295,-1.39452 0.59765,-1.51172 0.15233,2e-5 0.29295,0.0293 0.42188,0.0879 0.0234,0.0938 0.0351,0.18166 0.0352,0.26367 -2e-5,0.082 -0.0117,0.21681 -0.0352,0.4043 -0.0586,0.43361 -0.0879,1.79298 -0.0879,4.07812 -2e-5,0.60939 0.0293,1.28908 0.0879,2.03907 0.0703,0.75 0.10545,1.1543 0.10547,1.21289 -2e-5,0.10547 -0.0176,0.2461 -0.0527,0.42187 -0.0938,0.0469 -0.16994,0.0703 -0.22851,0.0703 l -0.12305,0 c -0.18752,-0.32811 -0.36916,-0.83788 -0.54492,-1.52929 -0.30471,-1.18359 -0.62697,-1.92187 -0.9668,-2.21485 -0.328143,-0.30467 -0.867205,-0.45702 -1.61719,-0.45703 -0.164077,1e-5 -0.462904,0.0117 -0.896484,0.0352 -0.433607,0.0117 -1.078138,0.0176 -1.933594,0.0176 l -1.142578,0 c -1.628915,1e-5 -2.69532,0.0352 -3.199219,0.10547 l -0.01758,0.58007 0.01758,3.23438 -0.01758,2.03906 0.01758,1.98633 c 0.01171,1.19531 0.08788,1.88672 0.228516,2.07422 0.199211,0.25781 0.632804,0.38672 1.300781,0.38672 l 1.072266,-0.0176 c 0.09374,0 0.457021,0.0117 1.089844,0.0352 0.644519,0.0117 1.435534,0.0176 2.373046,0.0176 2.261703,0 3.767562,-0.0937 4.517582,-0.28125 0.74998,-0.19921 1.36521,-0.54492 1.8457,-1.03711 0.49217,-0.49218 1.1074,-1.55273 1.8457,-3.18164 0.22264,-0.48046 0.4453,-0.72069 0.66797,-0.7207 0.10545,1e-5 0.22264,0.0469 0.35157,0.14063 -0.33987,1.16016 -0.53323,1.92187 -0.58008,2.28515 -0.12893,0.82032 -0.2051,1.65821 -0.22852,2.51367 -2e-5,0.38672 -0.0938,0.70899 -0.28125,0.9668 l -0.38672,0 -4.93945,0.0527 -2.214845,-0.0176 -5.273438,0.0703 -2.144531,0 c -0.269538,0 -0.521491,0.006 -0.755859,0.0176 -2.109379,0.0937 -3.662112,0.14062 -4.658204,0.14062 -0.175782,0 -0.298829,-0.0293 -0.36914,-0.0879 -0.05859,-0.0586 -0.08789,-0.14648 -0.08789,-0.26367 l 0.01758,-0.17578"
       id="text3379"
       inkscape:connector-curvature="0" />
    <path
       style="font-size:48px;font-style:normal;font-variant:normal;font-weight:normal;font-stretch:normal;text-align:start;line-height:100%;text-anchor:start;fill:#7e0513;fill-opacity:1;fill-rule:nonzero;stroke:none;stroke-width:3;marker:none;visibility:visible;display:inline;overflow:visible;font-family:NWCV15"
       d="m 110.77425,278.98438 0,6.5625 1.14843,-1.33594 c 0.45313,-0.54688 0.875,-1.09375 1.26563,-1.64063 0.18749,-0.28125 0.35937,-0.54687 0.51562,-0.79687 0.125,-0.23438 0.27344,-0.50782 0.44532,-0.82032 0.12499,-0.26562 0.24999,-0.55468 0.375,-0.86718 0.0937,-0.1875 0.14062,-0.38281 0.14062,-0.58594 0,-0.3125 -0.0469,-0.625 -0.14062,-0.9375 -0.0938,-0.32812 -0.21095,-0.57812 -0.35157,-0.75 -0.125,-0.1875 -0.29688,-0.32812 -0.51562,-0.42188 -0.21876,-0.0625 -0.46094,-0.10937 -0.72656,-0.14062 -0.46876,0 -0.94532,0.21875 -1.42969,0.65625 -0.48438,0.42188 -0.72656,0.78125 -0.72656,1.07813 m -1.19532,9.16406 0,-26.29688 1.19532,0 0,15.35156 c 1.24999,-0.98437 2.42187,-1.47655 3.51562,-1.47656 0.5,10e-6 0.97656,0.14063 1.42969,0.42188 0.48437,0.3125 0.8828,0.72656 1.19531,1.24218 0.29687,0.54688 0.44531,1.09376 0.44531,1.64063 0,0.875 -0.38282,1.75781 -1.14843,2.64844 -0.40626,0.48437 -0.88282,1.03125 -1.42969,1.64062 -0.54688,0.60937 -1.03126,1.10156 -1.45313,1.47657 l -3.75,3.35156"
       id="text3485"
       inkscape:connector-curvature="0" />
    <path
       style="font-size:36px;font-style:normal;font-variant:normal;font-weight:normal;font-stretch:normal;text-align:start;line-height:100%;text-anchor:start;fill:#7e0513;fill-opacity:1;fill-rule:nonzero;stroke:none;stroke-width:3;marker:none;visibility:visible;display:inline;overflow:visible;font-family:Garamond"
       d="m 114.0392,166.03398 0,-0.54492 c 0.19922,-0.0469 0.35742,-0.0761 0.47461,-0.0879 l 1.65234,-0.0879 c 1.37109,-0.11717 2.90625,-0.21092 4.60547,-0.28125 0.67968,-0.0234 1.75195,-0.0351 3.2168,-0.0352 1.99217,2e-5 3.45116,0.14651 4.37695,0.43946 1.34764,0.43361 2.34959,1.08986 3.00586,1.96875 0.66795,0.8672 1.00194,1.834 1.00195,2.90039 -1e-5,1.73439 -1.23634,3.19337 -3.70898,4.37695 l -0.0879,0.14062 c 1.26561,0.33986 2.30272,0.81447 3.11133,1.42383 0.80857,0.60939 1.42967,1.35353 1.86328,2.23242 0.31638,0.64454 0.47459,1.48829 0.47461,2.53125 -2e-5,1.7461 -0.7969,3.30469 -2.39063,4.67579 -1.58204,1.35937 -3.76759,2.03906 -6.55664,2.03906 l -2.61914,0 -2.6543,0.0879 c -2.34375,0.0234 -3.71484,0.0352 -4.11328,0.0352 -0.41015,0 -0.81445,-0.0176 -1.21289,-0.0527 l 0,-0.19336 c 0,-0.14062 0.0293,-0.24023 0.0879,-0.29883 0.0703,-0.0703 0.20508,-0.1289 0.4043,-0.17578 1.46484,-0.30469 2.29101,-0.50976 2.47852,-0.61523 0.19921,-0.11719 0.33398,-0.29883 0.40429,-0.54492 0.14062,-0.46875 0.21094,-1.67578 0.21094,-3.6211 0,-0.17577 -0.006,-0.39843 -0.0176,-0.66797 -0.0234,-0.78515 -0.0352,-1.23632 -0.0352,-1.35351 l 0,-1.82813 c -1e-5,-3.09374 -0.0352,-5.7949 -0.10547,-8.10351 l -0.0176,-3.53321 -0.0176,-0.43945 c -0.9961,-0.1406 -1.875,-0.22849 -2.63672,-0.26367 -0.49219,-0.0117 -0.89062,-0.0527 -1.19531,-0.12305 m 6.97852,8.89453 c 0.58592,0.1172 1.20116,0.1758 1.8457,0.17578 2.53124,2e-5 4.24803,-0.55662 5.15039,-1.66992 0.90233,-1.11326 1.3535,-2.22068 1.35351,-3.32226 -1e-5,-0.49217 -0.082,-0.99022 -0.24609,-1.49414 -0.15236,-0.51561 -0.43361,-0.9785 -0.84375,-1.38868 -0.39845,-0.41013 -0.8965,-0.71482 -1.49414,-0.91406 -1.01954,-0.33982 -2.06251,-0.50974 -3.12891,-0.50976 -0.9961,2e-5 -1.92188,0.11135 -2.77734,0.33398 -0.0117,0.24612 -0.0176,0.42776 -0.0176,0.54492 0,0.11721 0.0117,0.45119 0.0352,1.00196 0.0117,0.35158 0.0176,0.70314 0.0176,1.05468 l -0.0527,2.12696 0.0176,1.26562 0.12305,2.47852 0.0176,0.3164 m 4.13085,11.95313 c 1.16015,-0.082 2.1328,-0.32813 2.91797,-0.73828 0.36327,-0.1875 0.791,-0.52149 1.28321,-1.00196 0.50389,-0.49218 0.89061,-1.07812 1.16015,-1.75781 0.28124,-0.67968 0.42186,-1.33593 0.42188,-1.96875 -2e-5,-0.48046 -0.0996,-1.07226 -0.29883,-1.77539 -0.18752,-0.70312 -0.51564,-1.31835 -0.98438,-1.8457 -0.45704,-0.53905 -1.14259,-0.97851 -2.05664,-1.31836 -0.91407,-0.35155 -1.92188,-0.52733 -3.02343,-0.52735 -2.13282,2e-5 -3.32814,0.041 -3.58594,0.12305 -0.0117,0.26954 -0.0176,0.46876 -0.0176,0.59766 l 0.0176,0.65039 -0.0176,1.31836 0,1.49414 c 0.0352,2.75391 0.0996,4.38281 0.19336,4.88672 0.0937,0.5039 0.41015,0.9375 0.94922,1.30078 0.55077,0.36328 1.56444,0.55078 3.04101,0.5625"
       id="text3383"
       inkscape:connector-curvature="0" />
    <path
       style="font-size:48px;font-style:normal;font-variant:normal;font-weight:normal;font-stretch:normal;text-align:start;line-height:100%;text-anchor:start;fill:#7e0513;fill-opacity:1;fill-rule:nonzero;stroke:none;stroke-width:3;marker:none;visibility:visible;display:inline;overflow:visible;font-family:NWCV15"
       d="m 138.22084,180.40703 0,6.5625 1.14844,-1.33594 c 0.45312,-0.54688 0.87499,-1.09375 1.26562,-1.64062 0.1875,-0.28126 0.35937,-0.54688 0.51563,-0.79688 0.12499,-0.23437 0.27343,-0.50781 0.44531,-0.82031 0.125,-0.26563 0.25,-0.55469 0.375,-0.86719 0.0937,-0.1875 0.14062,-0.38281 0.14063,-0.58594 -1e-5,-0.31249 -0.0469,-0.62499 -0.14063,-0.9375 -0.0937,-0.32812 -0.21094,-0.57812 -0.35156,-0.75 -0.12501,-0.18749 -0.29688,-0.32812 -0.51563,-0.42187 -0.21875,-0.0625 -0.46094,-0.10937 -0.72656,-0.14063 -0.46875,1e-5 -0.94531,0.21876 -1.42969,0.65625 -0.48437,0.42188 -0.72656,0.78126 -0.72656,1.07813 m -1.19531,9.16406 0,-26.29687 1.19531,0 0,15.35156 c 1.25,-0.98437 2.42187,-1.47656 3.51563,-1.47656 0.49999,0 0.97655,0.14063 1.42968,0.42187 0.48437,0.31251 0.88281,0.72657 1.19532,1.24219 0.29686,0.54688 0.4453,1.09375 0.44531,1.64062 -1e-5,0.875 -0.38282,1.75782 -1.14844,2.64844 -0.40626,0.48437 -0.88282,1.03125 -1.42969,1.64063 -0.54688,0.60937 -1.03125,1.10155 -1.45312,1.47656 l -3.75,3.35156"
       id="text3489"
       inkscape:connector-curvature="0" />
    <path
       style="font-size:36px;font-style:normal;font-variant:normal;font-weight:normal;font-stretch:normal;text-align:start;line-height:100%;text-anchor:start;fill:#7e0513;fill-opacity:1;fill-rule:nonzero;stroke:none;stroke-width:3;marker:none;visibility:visible;display:inline;overflow:visible;font-family:Garamond"
       d="m 278.7131,460.86368 0.19336,2.67187 c 0.0703,0.80861 0.10545,1.3594 0.10547,1.65235 l -0.49219,0.0879 c -0.78517,-1.78123 -1.76369,-3.11717 -2.93554,-4.00782 -1.16018,-0.8906 -2.584,-1.33591 -4.27149,-1.33593 -2.06251,2e-5 -3.66798,0.25197 -4.8164,0.75586 -1.66407,0.71486 -3.0879,1.95705 -4.27149,3.72656 -1.1836,1.76955 -1.77539,3.90236 -1.77539,6.39844 0,1.44141 0.21679,2.73633 0.65039,3.88476 0.43359,1.14845 1.04296,2.22071 1.82813,3.2168 0.79686,0.98438 1.73436,1.83985 2.8125,2.56641 0.70311,0.48047 1.541,0.84375 2.51367,1.08984 0.55077,0.12891 1.37108,0.19336 2.46094,0.19336 0.70311,0 1.4824,-0.0996 2.33789,-0.29883 0.85545,-0.19922 1.49998,-0.46289 1.93359,-0.79102 0.43358,-0.33984 0.72654,-0.7207 0.87891,-1.14257 0.16404,-0.42188 0.24607,-1.24219 0.24609,-2.46094 -2e-5,-2.02734 -0.13478,-3.20507 -0.4043,-3.5332 -0.26955,-0.33984 -1.11916,-0.56249 -2.54882,-0.66797 l -0.70313,-0.0527 -0.47461,0.0176 c -0.0703,-0.0117 -0.16408,-0.0293 -0.28125,-0.0527 l -0.26367,-0.43946 c -2e-5,-0.0586 0.041,-0.13475 0.12305,-0.22851 0.60936,-0.0937 1.93357,-0.14062 3.97265,-0.14063 0.45701,1e-5 1.20115,0.0117 2.23243,0.0352 l 1.81054,0.0703 1.63477,-0.0176 c 0.31638,10e-6 0.69724,0.0117 1.14258,0.0352 0.082,0.0117 0.13473,0.0352 0.1582,0.0703 0.0234,0.0235 0.0351,0.0703 0.0352,0.14063 -3e-5,0.12891 -0.0293,0.29298 -0.0879,0.49218 -0.49221,0.10548 -0.87307,0.15822 -1.14257,0.15821 l -1.14258,-0.0176 c -0.38674,10e-6 -0.69729,0.13477 -0.93164,0.4043 -0.11721,0.12891 -0.17581,0.56836 -0.17578,1.31836 l 0.0176,2.30273 c -2e-5,1.58204 -0.0645,2.58985 -0.19335,3.02344 -0.0703,0.25781 -0.21682,0.49219 -0.43946,0.70312 -0.22268,0.19922 -0.69143,0.43946 -1.40625,0.72071 -1.01955,0.41015 -1.94533,0.68554 -2.77734,0.82617 -1.54689,0.26953 -3.04103,0.40429 -4.48242,0.40429 -2.32033,0 -4.22462,-0.29296 -5.71289,-0.8789 -1.47657,-0.59766 -2.75392,-1.42383 -3.83204,-2.47852 -1.06641,-1.05468 -1.82812,-2.12109 -2.28515,-3.19922 -0.69141,-1.58202 -1.03711,-3.19335 -1.03711,-4.83398 0,-2.05077 0.53906,-4.05467 1.61719,-6.01172 1.08984,-1.96873 2.84179,-3.56834 5.25586,-4.79883 1.6992,-0.86716 4.0078,-1.30076 6.92578,-1.30078 2.0156,2e-5 3.66209,0.17581 4.93945,0.52735 1.28904,0.35158 2.30857,0.75002 3.05859,1.19531"
       id="text3367"
       inkscape:connector-curvature="0" />
    <path
       style="font-size:48px;font-style:normal;font-variant:normal;font-weight:normal;font-stretch:normal;text-align:start;line-height:100%;text-anchor:start;fill:#7e0513;fill-opacity:1;fill-rule:nonzero;stroke:none;stroke-width:3;marker:none;visibility:visible;display:inline;overflow:visible;font-family:NWCV15"
       d="m 340.34201,474.78613 0,-5.17968 -2.64844,0.58593 0,5.17969 2.64844,-0.58594 m 3.07031,-0.70312 0,3.77344 -1.875,0.44531 0,6.77344 -1.19531,0 0,-6.53907 -2.64844,0.63282 0,6.75 -1.14843,0 0,-6.46875 -1.875,0.42187 0,-3.72656 c 1.24999,-10e-6 1.87499,-0.16407 1.875,-0.49219 l 0,-5.17969 -1.875,0.46875 0,-3.63281 1.875,-0.49219 0.0469,-6.91406 1.10156,0 0,6.63281 2.64844,-0.58593 0,-7.05469 1.19531,0 0,6.77344 1.875,-0.42188 0,3.63281 -1.875,0.44532 0,5.17968 1.875,-0.42187"
       id="text3419"
       inkscape:connector-curvature="0" />
    <path
       style="font-size:48px;font-style:normal;font-variant:normal;font-weight:normal;font-stretch:normal;text-align:start;line-height:100%;text-anchor:start;fill:#7e0513;fill-opacity:1;fill-rule:nonzero;stroke:none;stroke-width:3;marker:none;visibility:visible;display:inline;overflow:visible;font-family:NWCV15"
       d="m 286.74045,475.12891 0,6.5625 1.14844,-1.33594 c 0.45312,-0.54688 0.87499,-1.09375 1.26562,-1.64063 0.1875,-0.28125 0.35937,-0.54687 0.51563,-0.79687 0.12499,-0.23438 0.27343,-0.50781 0.44531,-0.82031 0.12499,-0.26563 0.24999,-0.55469 0.375,-0.86719 0.0937,-0.1875 0.14062,-0.38281 0.14062,-0.58594 0,-0.3125 -0.0469,-0.625 -0.14062,-0.9375 -0.0938,-0.32812 -0.21094,-0.57812 -0.35156,-0.75 -0.12501,-0.1875 -0.29688,-0.32812 -0.51563,-0.42187 -0.21875,-0.0625 -0.46094,-0.10937 -0.72656,-0.14063 -0.46875,1e-5 -0.94532,0.21875 -1.42969,0.65625 -0.48438,0.42188 -0.72656,0.78125 -0.72656,1.07813 m -1.19531,9.16406 0,-26.29688 1.19531,0 0,15.35157 c 1.25,-0.98437 2.42187,-1.47656 3.51562,-1.47657 0.5,1e-5 0.97656,0.14063 1.42969,0.42188 0.48437,0.3125 0.88281,0.72657 1.19531,1.24219 0.29687,0.54687 0.44531,1.09375 0.44532,1.64062 -1e-5,0.875 -0.38282,1.75781 -1.14844,2.64844 -0.40626,0.48437 -0.88282,1.03125 -1.42969,1.64062 -0.54688,0.60938 -1.03125,1.10156 -1.45312,1.47657 l -3.75,3.35156"
       id="text3423"
       inkscape:connector-curvature="0" />
    <path
       style="font-size:36px;font-style:normal;font-variant:normal;font-weight:normal;font-stretch:normal;text-align:start;line-height:100%;text-anchor:start;fill:#7e0513;fill-opacity:1;fill-rule:nonzero;stroke:none;stroke-width:3;marker:none;visibility:visible;display:inline;overflow:visible;font-family:Garamond"
       d="m 313.24826,483.3631 0.0176,-0.43945 c 0.25781,-0.12891 0.68554,-0.24024 1.2832,-0.33399 0.60937,-0.10547 1.02539,-0.20508 1.24805,-0.29883 0.23437,-0.10547 0.42773,-0.24023 0.58008,-0.40429 0.10546,-0.51563 0.1582,-1.44727 0.1582,-2.79493 l -0.24609,-13.67578 0.0527,-2.26758 c 0,-0.46873 -0.0879,-0.79099 -0.26367,-0.96679 -0.16407,-0.17576 -0.60352,-0.33397 -1.31836,-0.47461 -0.71485,-0.15232 -1.13672,-0.27537 -1.26563,-0.36914 -0.1289,-0.0937 -0.19336,-0.19334 -0.19336,-0.29883 0,-0.0586 0.0176,-0.13474 0.0527,-0.22852 0.15234,-0.0937 0.31054,-0.1406 0.47461,-0.14062 0.17578,2e-5 0.5332,0.0117 1.07226,0.0352 l 0.49219,0 c 0.16406,2e-5 0.62695,-0.0117 1.38867,-0.0352 l 2.44336,0 5.04492,-0.0879 5.34375,-0.21094 0.47461,0 0.75586,-0.0176 c 0.21092,3e-5 0.39842,0.0586 0.5625,0.17578 0.0703,0.18753 0.11131,0.32229 0.12305,0.4043 l -0.0176,0.70313 0.15821,3.14648 c -2e-5,0.12892 -0.0117,0.29299 -0.0352,0.49219 -0.18752,0.082 -0.35744,0.12306 -0.50977,0.12304 -0.10548,2e-5 -0.18752,-0.0351 -0.24609,-0.10546 -0.0938,-0.12889 -0.15236,-0.37499 -0.17578,-0.73829 -0.0469,-0.50388 -0.22854,-1.15427 -0.54492,-1.95117 -0.15236,-0.37498 -0.40432,-0.63279 -0.75586,-0.77343 -0.70314,-0.26951 -1.88674,-0.40428 -3.55078,-0.4043 -0.78517,2e-5 -1.51759,0.0235 -2.19727,0.0703 -0.6797,0.0352 -1.09571,0.0528 -1.24805,0.0527 l -1.37109,-0.0176 c -0.56251,2e-5 -1.0254,0.082 -1.38867,0.24609 -0.2461,0.10549 -0.36915,0.35744 -0.36914,0.75586 l 0,0.26367 c 0.0351,0.59768 0.0527,1.25979 0.0527,1.98633 l -0.0527,4.78125 c -10e-6,0.46876 0.0351,0.91408 0.10547,1.33594 l 0.50976,0.0351 0.98438,-0.0527 3.35742,0 c 1.34764,10e-6 2.28514,-0.0937 2.8125,-0.28125 0.35155,-0.12889 0.61522,-0.32225 0.79101,-0.58008 0.0586,-0.082 0.20507,-0.54491 0.43946,-1.38867 l 0.22851,-1.45898 c 0.14061,-0.0703 0.24608,-0.10546 0.31641,-0.10547 0.0586,10e-6 0.15233,0.0293 0.28125,0.0879 0.0469,0.26954 0.0762,0.6797 0.0879,1.23047 l 0.21094,6.46875 c -0.19924,0.082 -0.35158,0.12305 -0.45703,0.12304 l -0.19336,-0.0352 c -0.18752,-1.17187 -0.48049,-2.09179 -0.87891,-2.75977 -0.14064,-0.23436 -0.29884,-0.36913 -0.47461,-0.4043 -0.3047,-0.0703 -1.69923,-0.10545 -4.18359,-0.10546 -0.77345,10e-6 -1.30665,0.006 -1.59961,0.0176 -0.70314,0.0352 -1.12501,0.0528 -1.26563,0.0527 l -0.17578,0 c -0.35157,1e-5 -0.60352,0.0469 -0.75586,0.14062 -0.0469,0.14064 -0.0703,0.24025 -0.0703,0.29883 l 0,1.21289 c -10e-6,0.14064 0.006,0.72657 0.0176,1.75781 l -0.0352,5.81836 c -10e-6,0.16407 0.0469,0.36915 0.14063,0.61524 0.24608,0.19922 0.6914,0.33398 1.33593,0.40429 0.65624,0.0586 1.27148,0.21094 1.84571,0.45704 0.32811,0.15234 0.49217,0.32226 0.49218,0.50976 -1e-5,0.082 -0.0234,0.1582 -0.0703,0.22852 -0.0469,0.0703 -0.12891,0.12304 -0.24609,0.1582 -0.96095,-0.19922 -2.29103,-0.29883 -3.99024,-0.29883 -0.90235,0 -1.85742,0.082 -2.86523,0.2461 -0.69141,0.10546 -1.48242,0.1582 -2.37305,0.1582 l -0.35156,-0.0879"
       id="text3445"
       inkscape:connector-curvature="0" />
    <path
       style="font-size:36px;font-style:normal;font-variant:normal;font-weight:normal;font-stretch:normal;text-align:start;line-height:100%;text-anchor:start;fill:#7e0513;fill-opacity:1;fill-rule:nonzero;stroke:none;stroke-width:3;marker:none;visibility:visible;display:inline;overflow:visible;font-family:Garamond"
       d="m 308.70139,457.18692 1.54687,0 -12.39258,29.93555 -1.52929,0 12.375,-29.93555"
       id="text3527"
       inkscape:connector-curvature="0" />
    <path
       style="font-size:48px;font-style:normal;font-variant:normal;font-weight:normal;font-stretch:normal;text-align:start;line-height:100%;text-anchor:start;fill:#7e0513;fill-opacity:1;fill-rule:nonzero;stroke:none;stroke-width:3;marker:none;visibility:visible;display:inline;overflow:visible;font-family:NWCV15"
       d="m 110.56014,65.896179 0,13.460752 2.94833,-2.740229 c 1.16327,-1.12174 2.24631,-2.243459 3.24916,-3.365178 0.48135,-0.57691 0.92259,-1.12174 1.32374,-1.63453 0.32088,-0.480731 0.70197,-1.041601 1.14322,-1.682589 0.32091,-0.54485 0.64182,-1.137759 0.96272,-1.778747 0.24055,-0.384593 0.36101,-0.785206 0.36103,-1.201858 -2e-5,-0.640968 -0.1204,-1.281956 -0.36103,-1.922965 -0.24055,-0.673027 -0.54153,-1.185818 -0.90254,-1.538372 -0.32093,-0.384572 -0.76217,-0.673027 -1.32375,-0.865324 -0.56158,-0.128197 -1.18334,-0.224335 -1.86526,-0.288454 -1.20339,2e-5 -2.42684,0.448712 -3.67036,1.346075 -1.2435,0.865344 -1.86526,1.602491 -1.86526,2.211419 m -3.06865,18.796974 0,-53.939146 3.06865,0 0,31.48854 c 3.20906,-2.019103 6.21754,-3.028665 9.02549,-3.028665 1.28359,0 2.50704,0.288455 3.67034,0.865324 1.24349,0.641009 2.26638,1.490313 3.06867,2.547933 0.76212,1.12174 1.14319,2.243459 1.14322,3.365178 -3e-5,1.794767 -0.98279,3.605574 -2.94832,5.43238 -1.04297,0.993522 -2.26642,2.115261 -3.67037,3.365199 -1.40398,1.249916 -2.64747,2.259457 -3.73051,3.028664 l -9.62717,6.874593"
       id="text3489-6"
       inkscape:connector-curvature="0" />
    <path
       style="font-size:48px;font-style:normal;font-variant:normal;font-weight:normal;font-stretch:normal;text-align:start;line-height:100%;text-anchor:start;fill:#7e0513;fill-opacity:1;fill-rule:nonzero;stroke:none;stroke-width:3;marker:none;visibility:visible;display:inline;overflow:visible;font-family:NWCV15"
       d="m 484.16434,62.822133 0,-11.101304 -8.31333,1.25579 0,11.101325 8.31333,-1.255811 m 9.63757,-1.506956 0,8.087393 -5.88555,0.954406 0,14.517115 -3.75202,0 0,-14.014803 -8.31333,1.356285 0,14.466878 -3.60487,0 0,-13.864091 -5.88554,0.904169 0,-7.986916 c 3.92366,-2.2e-5 5.88551,-0.351642 5.88554,-1.054883 l 0,-11.101325 -5.88554,1.004645 0,-7.785988 5.88554,-1.054882 0.14721,-14.818498 3.45776,0 0,14.215711 8.31333,-1.255789 0,-15.119902 3.75202,0 0,14.517115 5.88554,-0.90419 0,7.785988 -5.88554,0.954428 0,11.101304 5.88554,-0.90417"
       id="text3419-2"
       inkscape:connector-curvature="0" />
  </g>
  <g
     inkscape:groupmode="layer"
     id="layer6"
     inkscape:label="minor text"
     style="display:inline">
    <path
       style="font-size:36px;font-style:normal;font-variant:normal;font-weight:normal;font-stretch:normal;text-align:start;line-height:100%;text-anchor:start;fill:#1a571a;fill-opacity:1;fill-rule:nonzero;stroke:none;stroke-width:3;marker:none;visibility:visible;display:inline;overflow:visible;font-family:Garamond"
       d="m 180.7581,278.68262 0.0176,1.14258 c -0.91408,0.97265 -1.81642,1.65234 -2.70703,2.03906 -0.89064,0.38672 -1.93946,0.58008 -3.14649,0.58008 -1.3125,0 -2.49609,-0.33985 -3.55078,-1.01954 -1.05469,-0.6914 -1.86914,-1.66406 -2.44336,-2.91796 -0.5625,-1.25391 -0.84375,-2.48437 -0.84375,-3.69141 0,-1.32421 0.33985,-2.57226 1.01954,-3.74414 0.6914,-1.18358 1.5996,-2.06249 2.7246,-2.63672 1.13672,-0.58592 2.56054,-0.87889 4.27149,-0.87891 1.64061,2e-5 2.88866,0.28127 3.74414,0.84375 0.48046,0.32814 0.72069,0.75002 0.7207,1.26563 -1e-5,0.37501 -0.12306,0.68556 -0.36914,0.93164 -0.2461,0.2461 -0.56251,0.36915 -0.94922,0.36914 -0.58595,10e-6 -1.23048,-0.36327 -1.93359,-1.08984 -0.4336,-0.4453 -0.82618,-0.74999 -1.17773,-0.91407 -0.35158,-0.17576 -0.74415,-0.26365 -1.17774,-0.26367 -1.04297,2e-5 -1.91016,0.42775 -2.60156,1.28321 -0.96094,1.21876 -1.44141,2.74805 -1.44141,4.58789 0,1.89844 0.49219,3.41016 1.47656,4.53515 0.98437,1.125 2.13281,1.6875 3.44532,1.6875 0.91405,0 1.72264,-0.14648 2.42578,-0.43945 0.71483,-0.30469 1.54686,-0.86133 2.49609,-1.66992"
       id="text3335"
       inkscape:connector-curvature="0" />
    <path
       style="font-size:36px;font-style:normal;font-variant:normal;font-weight:normal;font-stretch:normal;text-align:start;line-height:100%;text-anchor:start;fill:#1a571a;fill-opacity:1;fill-rule:nonzero;stroke:none;stroke-width:3;marker:none;visibility:visible;display:inline;overflow:visible;font-family:Garamond"
       d="m 187.47885,217.18254 c -0.14063,-0.0703 -0.5918,-0.26367 -1.35351,-0.58008 -0.89063,-0.57422 -1.45313,-1.00195 -1.6875,-1.2832 -0.23438,-0.28125 -0.35157,-0.5918 -0.35157,-0.93164 0,-0.30469 0.0879,-0.55078 0.26368,-0.73828 0.25781,-0.26953 0.76757,-0.52734 1.52929,-0.77344 0.76172,-0.24609 1.38867,-0.48632 1.88086,-0.7207 -0.15235,-0.10547 -0.39258,-0.25781 -0.7207,-0.45703 -1.7461,-1.07812 -2.61914,-2.57226 -2.61914,-4.48243 0,-1.5703 0.55078,-2.89452 1.65234,-3.97265 1.11328,-1.08983 2.5371,-1.63475 4.27149,-1.63477 0.78514,2e-5 1.50585,0.11134 2.16211,0.33399 0.37498,0.1172 0.93162,0.41017 1.66992,0.8789 0.46874,0.29298 0.74413,0.45705 0.82617,0.49219 0.18749,0.0586 0.39842,0.0879 0.63281,0.0879 0.19921,1e-5 0.67968,-0.0469 1.44141,-0.14062 0.77342,-0.10546 1.23045,-0.15819 1.37109,-0.15821 0.26952,2e-5 0.49217,0.0528 0.66797,0.15821 0.14061,0.23438 0.21092,0.62696 0.21094,1.17773 -2e-5,0.18751 -0.0528,0.32814 -0.15821,0.42188 -0.0938,0.0938 -0.23439,0.14063 -0.42187,0.14062 -0.32814,1e-5 -0.87306,-0.0996 -1.63477,-0.29883 -0.75001,-0.21092 -1.20704,-0.31639 -1.37109,-0.3164 -0.0586,1e-5 -0.16993,0.0117 -0.33398,0.0351 0.50389,1.00783 0.75584,1.92775 0.75586,2.75977 -2e-5,0.83204 -0.26369,1.69336 -0.79102,2.58398 -0.52736,0.89063 -1.25392,1.57032 -2.17969,2.03906 -0.92579,0.46876 -1.86329,0.70313 -2.8125,0.70313 -0.0703,0 -0.26954,-0.006 -0.59765,-0.0176 -1.07814,10e-6 -2.06837,0.26954 -2.97071,0.8086 -0.43359,0.26953 -0.65039,0.52148 -0.65039,0.75585 0,0.2461 0.21094,0.48633 0.63281,0.72071 1.11328,0.59765 3.22265,0.94336 6.32813,1.03711 1.34764,0.0469 2.39647,0.24023 3.14648,0.58008 0.74999,0.33984 1.31249,0.83788 1.6875,1.49414 0.38671,0.66796 0.58007,1.35351 0.58008,2.05664 -1e-5,0.94921 -0.32228,1.82812 -0.96679,2.63672 -0.64455,0.80858 -1.62307,1.46483 -2.93555,1.96875 -1.31251,0.50389 -2.81837,0.75585 -4.51758,0.75585 -1.87501,0 -3.32227,-0.22852 -4.3418,-0.68554 -1.01953,-0.45704 -1.74609,-0.95509 -2.17968,-1.49414 -0.42188,-0.53907 -0.63282,-1.07227 -0.63282,-1.59961 0,-0.45704 0.23438,-1.03126 0.70313,-1.72266 0.46875,-0.67969 1.4414,-1.39453 2.91797,-2.14453 0.43359,-0.22266 0.73241,-0.38086 0.89648,-0.47461 m -0.70312,-10.03711 c -1e-5,1.0547 0.1582,1.93946 0.47461,2.6543 0.3164,0.70313 0.74999,1.23047 1.30078,1.58203 0.55077,0.33985 1.10741,0.50977 1.66992,0.50977 1.01952,0 1.86327,-0.38672 2.53125,-1.16016 0.67968,-0.78515 1.01952,-1.9746 1.01953,-3.56836 -1e-5,-1.60546 -0.35157,-2.82421 -1.05469,-3.65625 -0.70313,-0.84374 -1.55274,-1.26561 -2.54883,-1.26563 -1.11328,2e-5 -1.95703,0.39846 -2.53125,1.19532 -0.57422,0.79688 -0.86133,2.03321 -0.86132,3.70898 m -0.58008,16.27735 c 1.0664,0.8203 2.41405,1.23046 4.04297,1.23046 1.16014,0 2.31444,-0.1875 3.46289,-0.5625 1.16014,-0.36328 2.00389,-0.89063 2.53125,-1.58203 0.53905,-0.67969 0.80858,-1.32422 0.80859,-1.93359 -1e-5,-0.37501 -0.0938,-0.75 -0.28125,-1.125 -0.18751,-0.36329 -0.44532,-0.66797 -0.77344,-0.91406 -0.31642,-0.23438 -0.73829,-0.42188 -1.26562,-0.5625 -0.37501,-0.10547 -0.90822,-0.18165 -1.59961,-0.22852 -1.96876,-0.15234 -3.17579,-0.22852 -3.62109,-0.22851 -1.25392,-1e-5 -2.37306,0.42187 -3.35743,1.26562 -0.76172,0.65625 -1.14258,1.4414 -1.14257,2.35547 -1e-5,0.84374 0.39843,1.60546 1.19531,2.28516"
       id="text3561"
       inkscape:connector-curvature="0" />
    <path
       style="font-size:36px;font-style:normal;font-variant:normal;font-weight:normal;font-stretch:normal;text-align:start;line-height:100%;text-anchor:start;fill:#1a571a;fill-opacity:1;fill-rule:nonzero;stroke:none;stroke-width:3;marker:none;visibility:visible;display:inline;overflow:visible;font-family:Garamond"
       d="m 240.27083,167.16316 0.0176,-0.50976 -0.0176,-2.05664 0.0176,-3.88477 c -2e-5,-1.0781 -0.1172,-1.76365 -0.35157,-2.05664 -0.23438,-0.29295 -0.91993,-0.59178 -2.05664,-0.89648 -0.082,-0.0234 -0.21094,-0.0586 -0.38672,-0.10547 l 0,-0.19336 c -1e-5,-0.11717 0.0117,-0.24607 0.0352,-0.38672 1.59374,-0.16404 2.96483,-0.43943 4.11328,-0.82617 l 0.89649,-0.0176 c 0.0469,0.7969 0.0703,1.68752 0.0703,2.67187 l -0.0703,6.76758 0.12304,7.62891 -0.0527,4.06054 c -2e-5,0.83204 0.0586,1.30079 0.17578,1.40625 0.23436,0.23438 0.74998,0.35743 1.54688,0.36915 0.16404,0 0.3867,0.0117 0.66796,0.0351 l 0,0.31641 c -1e-5,0.082 -0.006,0.16992 -0.0176,0.26367 -0.3633,0.082 -0.7383,0.1582 -1.125,0.22852 l -2.54883,0.49218 c -0.37502,0.0703 -0.67384,0.10547 -0.89649,0.10547 l 0,-1.6875 c -0.19923,0.0586 -0.50977,0.17578 -0.93164,0.35156 -1.82813,0.77344 -3.50977,1.16016 -5.04492,1.16016 -0.92579,0 -1.86915,-0.29883 -2.83008,-0.89648 -0.96094,-0.60938 -1.69922,-1.45313 -2.21484,-2.53125 -0.51563,-1.07812 -0.77344,-2.17969 -0.77344,-3.30469 0,-1.00781 0.16992,-1.96874 0.50977,-2.88281 0.33984,-0.92578 0.78515,-1.69335 1.33593,-2.30274 0.35156,-0.39842 0.84961,-0.791 1.49415,-1.17773 0.64452,-0.39843 1.17772,-0.65038 1.5996,-0.75586 1.04297,-0.26952 1.74023,-0.40429 2.0918,-0.4043 1.58202,1e-5 2.8828,0.23439 3.90235,0.70313 0.31639,0.15235 0.55662,0.25782 0.7207,0.3164 m 0.0176,10.86328 c 0.0469,-0.78515 0.0703,-2.40234 0.0703,-4.85156 -1e-5,-2.07421 -0.0996,-3.38085 -0.29883,-3.91992 -0.18751,-0.55077 -0.66798,-1.0664 -1.44141,-1.54688 -0.77344,-0.49217 -1.64063,-0.73826 -2.60156,-0.73828 -1.34766,2e-5 -2.49024,0.5215 -3.42773,1.56446 -0.93751,1.04298 -1.40626,2.58399 -1.40625,4.62304 -1e-5,1.79298 0.5039,3.22266 1.51172,4.28907 1.01952,1.0664 2.28515,1.59961 3.79687,1.5996 0.86718,1e-5 1.65819,-0.11718 2.37305,-0.35156 0.71483,-0.23437 1.18944,-0.45703 1.42383,-0.66797"
       id="text3573"
       inkscape:connector-curvature="0" />
    <path
       style="font-size:36px;font-style:normal;font-variant:normal;font-weight:normal;font-stretch:normal;text-align:start;line-height:100%;text-anchor:start;fill:#1a571a;fill-opacity:1;fill-rule:nonzero;stroke:none;stroke-width:3;marker:none;visibility:visible;display:inline;overflow:visible;font-family:Garamond"
       d="m 305.69858,156.49104 c 0.0703,0.15235 0.10545,0.26368 0.10547,0.33399 -2e-5,0.17578 -0.14064,0.48633 -0.42188,0.93164 -0.36329,0.58594 -0.76759,1.01367 -1.21289,1.2832 -0.28126,0.17578 -0.66798,0.26367 -1.16016,0.26367 -0.84376,0 -1.47657,-0.25781 -1.89843,-0.77343 -0.25782,-0.30469 -0.43947,-0.84961 -0.54492,-1.63477 l -1.96875,1.37109 c -0.69142,0.39844 -1.21876,0.65039 -1.58204,0.75586 -0.58594,0.15235 -1.28906,0.22852 -2.10937,0.22852 -0.59766,0 -1.07227,-0.17578 -1.42383,-0.52735 -0.33984,-0.36328 -0.50977,-0.82617 -0.50976,-1.38867 -10e-6,-0.80859 0.49218,-1.77538 1.47656,-2.90039 0.99609,-1.12499 2.34374,-2.04491 4.04297,-2.75976 1.1953,-0.5039 1.92772,-0.82617 2.19726,-0.9668 0.0234,-0.38671 0.0351,-0.80858 0.0352,-1.26563 -1e-5,-1.48827 -0.21095,-2.49608 -0.63281,-3.02343 -0.41017,-0.52733 -1.00196,-0.791 -1.77539,-0.79102 -0.8086,2e-5 -1.56446,0.31642 -2.26758,0.94922 -0.4336,0.39845 -0.76173,1.14845 -0.98438,2.25 -0.0703,0.3047 -0.20508,0.63282 -0.40429,0.98438 -0.50391,0.32813 -0.90821,0.49219 -1.2129,0.49218 -0.25781,1e-5 -0.49218,-0.0762 -0.70312,-0.22851 -0.11719,-0.082 -0.17578,-0.17577 -0.17578,-0.28125 0,-0.30468 0.32226,-0.99023 0.9668,-2.05664 0.65624,-1.07812 1.47655,-1.88085 2.46093,-2.40821 0.99609,-0.53904 1.86328,-0.80858 2.60157,-0.80859 1.0078,1e-5 1.7578,0.0938 2.25,0.28125 0.49217,0.1758 0.92577,0.4922 1.30078,0.94922 0.37499,0.45704 0.6035,0.95509 0.68554,1.49414 0.0469,0.25782 0.0703,1.17774 0.0703,2.75976 l -0.0527,2.79493 0.0176,2.03906 c -1e-5,0.26953 -0.006,0.49805 -0.0176,0.68555 -0.0117,0.33984 -0.0176,0.5918 -0.0176,0.75586 -10e-6,0.38672 0.11132,0.69726 0.33399,0.93164 0.22264,0.23437 0.48631,0.35156 0.79101,0.35156 0.4453,0 0.82616,-0.22266 1.14258,-0.66797 l 0.21094,-0.28125 c 0.0586,-0.0352 0.18749,-0.0762 0.38672,-0.12305 m -5.16797,-0.50976 c 0.082,-1.48828 0.12304,-2.53711 0.12305,-3.14649 -1e-5,-0.3164 -0.0176,-0.74413 -0.0527,-1.2832 -0.78516,0.28126 -1.61719,0.70899 -2.49609,1.2832 -0.87891,0.57423 -1.57618,1.23634 -2.0918,1.98633 -0.375,0.53907 -0.5625,1.04883 -0.5625,1.5293 0,0.45703 0.15234,0.83789 0.45703,1.14258 0.3164,0.30468 0.70898,0.45703 1.17774,0.45703 0.36327,0 0.80272,-0.12891 1.31836,-0.38672 0.67968,-0.33984 1.38866,-0.86719 2.12695,-1.58203"
       id="text3577"
       inkscape:connector-curvature="0" />
    <path
       style="font-size:36px;font-style:normal;font-variant:normal;font-weight:normal;font-stretch:normal;text-align:start;line-height:100%;text-anchor:start;fill:#1a571a;fill-opacity:1;fill-rule:nonzero;stroke:none;stroke-width:3;marker:none;visibility:visible;display:inline;overflow:visible;font-family:Garamond"
       d="m 367.73376,166.11726 -7.04882,0.0527 -1.33594,0 c -0.53907,1e-5 -1.08985,0.0234 -1.65234,0.0703 -0.10548,0.35157 -0.15821,0.59181 -0.15821,0.7207 l 0.0176,0.17579 0,0.17578 -0.0176,0.86132 c 0,0.71485 0.22265,1.59376 0.66797,2.63672 0.45703,1.03126 1.10156,1.82227 1.93359,2.37305 0.84375,0.53906 1.89257,0.82617 3.14649,0.86133 0.66796,-0.0352 1.20116,-0.11719 1.59961,-0.2461 0.39842,-0.1289 0.96092,-0.42773 1.6875,-0.89648 l 1.26562,-1.03711 0.10547,0.70313 c -1e-5,0.082 -0.006,0.16992 -0.0176,0.26367 -0.52735,0.66797 -1.19532,1.25391 -2.0039,1.75781 -0.80861,0.50391 -1.62892,0.87305 -2.46094,1.10742 -0.39845,0.10547 -1.0547,0.1582 -1.96875,0.15821 -0.83204,-1e-5 -1.65235,-0.16993 -2.46094,-0.50977 -1.19531,-0.51563 -2.13867,-1.3418 -2.83008,-2.47852 -0.67968,-1.14843 -1.01953,-2.5371 -1.01953,-4.16601 0,-0.51562 0.0937,-1.17773 0.28125,-1.98633 0.19922,-0.80858 0.55078,-1.66991 1.05469,-2.58398 0.33984,-0.62109 0.75586,-1.13085 1.24805,-1.5293 0.70312,-0.56249 1.31835,-0.95507 1.8457,-1.17774 0.76171,-0.31639 1.64648,-0.47459 2.6543,-0.4746 1.08983,1e-5 1.98046,0.19923 2.67187,0.59765 0.93749,0.52736 1.63476,1.20705 2.0918,2.03906 0.46874,0.83205 0.70311,1.59376 0.70312,2.28516 l 0,0.24609 m -9.80859,-0.63281 0.82617,0 c 0.59765,1e-5 2.3789,-0.0937 5.34375,-0.28125 0.46874,-0.0234 0.75585,-0.0703 0.86133,-0.14062 0.21093,-0.22265 0.3164,-0.42187 0.31641,-0.59766 -10e-6,-0.36327 -0.1172,-0.77343 -0.35157,-1.23047 -0.23438,-0.46874 -0.59766,-0.82616 -1.08984,-1.07226 -0.48048,-0.2578 -1.04298,-0.38671 -1.6875,-0.38672 -1.35938,1e-5 -2.44922,0.50978 -3.26953,1.52929 -0.63282,0.77345 -0.94922,1.50001 -0.94922,2.17969"
       id="text3581"
       inkscape:connector-curvature="0" />
    <path
       style="font-size:36px;font-style:normal;font-variant:normal;font-weight:normal;font-stretch:normal;text-align:start;line-height:100%;text-anchor:start;fill:#1a571a;fill-opacity:1;fill-rule:nonzero;stroke:none;stroke-width:3;marker:none;visibility:visible;display:inline;overflow:visible;font-family:Garamond"
       d="m 399.04529,202.83879 0,-0.0879 c 0,-0.11716 0.0469,-0.28123 0.14062,-0.49219 1.27734,-0.22263 2.63672,-0.56247 4.07813,-1.01953 0.082,-0.0117 0.21093,-0.0175 0.38672,-0.0176 0.0586,0.18753 0.0879,0.31057 0.0879,0.36914 l 0,5.23829 -0.0176,1.66992 0.0176,1.86328 -0.0352,1.51172 c 0,0.0586 0.0117,0.25782 0.0352,0.59765 l 1.4414,-0.54492 c 0.15234,-0.0469 0.65625,-0.1992 1.51172,-0.45703 1.08984,-0.17577 1.72265,-0.26366 1.89844,-0.26367 1.17186,1e-5 2.22655,0.18751 3.16406,0.5625 0.57421,0.23439 1.14257,0.62696 1.70508,1.17773 0.56249,0.53908 0.9785,1.11329 1.24805,1.72266 0.46873,1.11329 0.70311,2.07423 0.70312,2.88281 -10e-6,1.27735 -0.0821,2.16212 -0.24609,2.6543 -0.39846,1.17188 -0.88478,2.09766 -1.45899,2.77734 -0.57423,0.67969 -1.37696,1.25977 -2.4082,1.74024 -1.03126,0.48046 -2.12696,0.7207 -3.28711,0.7207 -1.06641,0 -2.07422,-0.19922 -3.02344,-0.59766 -0.94922,-0.39843 -1.48242,-0.59765 -1.59961,-0.59765 -0.36328,0 -0.82617,0.48047 -1.38867,1.4414 l -0.50976,-0.0176 c -0.0469,-0.78516 -0.0703,-1.75196 -0.0703,-2.9004 l 0.0352,-2.61914 -0.0176,-1.33593 0.0352,-3.83203 -0.0352,-0.73829 0.0703,-1.81054 0,-1.54688 0.0176,-0.63281 c 0,-0.12889 -0.006,-0.63866 -0.0176,-1.5293 l 0,-1.05468 c 0.0351,-2.03905 -0.0527,-3.21678 -0.26368,-3.53321 -0.33984,-0.50388 -1.07226,-0.93748 -2.19726,-1.30078 m 8.34961,21.63867 c 1.78124,0 3.13475,-0.49804 4.06054,-1.49414 0.93749,-1.00781 1.40624,-2.50195 1.40625,-4.48242 -10e-6,-1.8164 -0.52735,-3.2871 -1.58203,-4.41211 -1.0547,-1.12499 -2.35548,-1.68749 -3.90234,-1.6875 -1.12501,1e-5 -2.06837,0.18165 -2.83008,0.54492 -0.45704,0.22267 -0.71485,0.42775 -0.77344,0.61524 -0.0469,0.18751 -0.0703,1.44141 -0.0703,3.76172 0,2.75391 0.0586,4.36523 0.17578,4.83398 0.19922,0.72656 0.5625,1.24805 1.08985,1.56445 0.83202,0.50391 1.64061,0.75586 2.42578,0.75586"
       id="text3585"
       inkscape:connector-curvature="0" />
    <path
       style="font-size:36px;font-style:normal;font-variant:normal;font-weight:normal;font-stretch:normal;text-align:start;line-height:100%;text-anchor:start;fill:#1a571a;fill-opacity:1;fill-rule:nonzero;stroke:none;stroke-width:3;marker:none;visibility:visible;display:inline;overflow:visible;font-family:Garamond"
       d="m 189.51791,334.61044 c 2.91796,0.0703 4.4707,0.10549 4.65821,0.10547 0.0234,0.25783 0.0351,0.45119 0.0352,0.58008 -1e-5,0.15236 -0.0176,0.38087 -0.0527,0.68555 -0.29298,0.0469 -0.59181,0.0703 -0.89649,0.0703 l -0.66796,0 c -1.45314,10e-6 -2.46095,0.0528 -3.02344,0.1582 -0.0234,0.26955 -0.0352,0.47462 -0.0352,0.61524 0,0.0586 0.006,0.14649 0.0176,0.26367 0.0586,1.83985 0.0879,2.95313 0.0879,3.33984 l -0.0352,4.51758 c 0,0.66797 0.11133,1.22461 0.33399,1.66992 0.1289,0.25782 0.36913,0.46289 0.7207,0.61524 0.22265,0.10547 0.76171,0.21094 1.61719,0.3164 0.64452,0.0937 1.07811,0.15821 1.30078,0.19336 -10e-6,0.2461 -0.0176,0.4336 -0.0527,0.5625 l -0.2461,0.0176 c -0.56251,-0.0352 -1.29493,-0.0644 -2.19726,-0.0879 l -1.30078,-0.0527 -4.42969,0.14062 -0.58008,0 -0.0176,-0.54492 c 0.17578,-0.0352 0.30469,-0.0644 0.38672,-0.0879 1.00781,-0.1875 1.6582,-0.39844 1.95117,-0.63281 0.11719,-0.0937 0.19922,-0.26367 0.2461,-0.50977 0.0234,-0.14062 0.0351,-0.79687 0.0351,-1.96875 0,-3.33984 -0.0293,-6.00585 -0.0879,-7.99805 -0.30469,-0.0937 -0.77344,-0.15233 -1.40625,-0.17578 -0.23438,10e-6 -0.60352,-0.0234 -1.10742,-0.0703 l -0.0352,-0.19336 c 0,-0.14061 0.0586,-0.2578 0.17579,-0.35156 0.0469,-0.0469 0.53906,-0.29296 1.47656,-0.73828 0.36328,-0.16405 0.62109,-0.36913 0.77344,-0.61524 0.082,-0.12889 0.1289,-0.39842 0.14062,-0.80859 0.0117,-0.18749 0.0469,-0.50975 0.10547,-0.9668 0.14062,-1.20701 0.25195,-1.95115 0.33398,-2.23242 0.21094,-0.78514 0.5625,-1.56443 1.05469,-2.33789 0.5039,-0.78514 1.10742,-1.47068 1.81055,-2.05664 0.51561,-0.42185 1.09569,-0.73826 1.74023,-0.94922 0.65624,-0.21091 1.40038,-0.31638 2.23242,-0.31641 1.11327,3e-5 1.92772,0.18167 2.44336,0.54492 0.35155,0.24612 0.52733,0.56253 0.52735,0.94922 -2e-5,0.32815 -0.12306,0.6094 -0.36914,0.84375 -0.24611,0.2344 -0.5508,0.35159 -0.91407,0.35157 -0.44532,2e-5 -0.92579,-0.11131 -1.4414,-0.33399 -0.97267,-0.3867 -1.52345,-0.59763 -1.65235,-0.63281 -0.22266,-0.0586 -0.45118,-0.0879 -0.68554,-0.0879 -0.64454,2e-5 -1.23634,0.2051 -1.77539,0.61523 -0.52735,0.41018 -0.86134,0.91409 -1.00196,1.51172 -0.14063,0.59768 -0.21094,1.93947 -0.21093,4.02539 -1e-5,0.75002 0.006,1.43556 0.0176,2.05664"
       id="text3597"
       inkscape:connector-curvature="0" />
    <path
       style="font-size:48px;font-style:normal;font-variant:normal;font-weight:normal;font-stretch:normal;text-align:start;line-height:100%;text-anchor:start;fill:#1a571a;fill-opacity:1;fill-rule:nonzero;stroke:none;stroke-width:3;marker:none;visibility:visible;display:inline;overflow:visible;font-family:NWCV15"
       d="m 243.29524,383.58197 0,6.5625 1.14844,-1.33594 c 0.45312,-0.54687 0.875,-1.09375 1.26562,-1.64062 0.1875,-0.28125 0.35938,-0.54688 0.51563,-0.79688 0.125,-0.23437 0.27343,-0.50781 0.44531,-0.82031 0.125,-0.26562 0.25,-0.55469 0.375,-0.86719 0.0937,-0.1875 0.14062,-0.38281 0.14063,-0.58593 -1e-5,-0.3125 -0.0469,-0.625 -0.14063,-0.9375 -0.0937,-0.32813 -0.21094,-0.57813 -0.35156,-0.75 -0.125,-0.1875 -0.29688,-0.32813 -0.51563,-0.42188 -0.21875,-0.0625 -0.46094,-0.10937 -0.72656,-0.14062 -0.46875,0 -0.94531,0.21875 -1.42969,0.65625 -0.48437,0.42187 -0.72656,0.78125 -0.72656,1.07812 m -1.19531,9.16406 0,-26.29687 1.19531,0 0,15.35156 c 1.25,-0.98437 2.42187,-1.47656 3.51563,-1.47656 0.49999,0 0.97655,0.14063 1.42968,0.42187 0.48437,0.31251 0.88281,0.72657 1.19532,1.24219 0.29686,0.54688 0.4453,1.09375 0.44531,1.64063 -1e-5,0.875 -0.38282,1.75781 -1.14844,2.64843 -0.40625,0.48438 -0.88282,1.03125 -1.42969,1.64063 -0.54687,0.60937 -1.03125,1.10156 -1.45312,1.47656 l -3.75,3.35156"
       id="text3553"
       inkscape:connector-curvature="0" />
    <path
       style="font-size:36px;font-style:normal;font-variant:normal;font-weight:normal;font-stretch:normal;text-align:start;line-height:100%;text-anchor:start;fill:#1a571a;fill-opacity:1;fill-rule:nonzero;stroke:none;stroke-width:3;marker:none;visibility:visible;display:inline;overflow:visible;font-family:Garamond"
       d="m 223.7347,368.98041 0,-0.0879 c -1e-5,-0.11717 0.0469,-0.28123 0.14062,-0.49219 1.27734,-0.22263 2.63672,-0.56248 4.07813,-1.01953 0.082,-0.0117 0.21093,-0.0176 0.38671,-0.0176 0.0586,0.18752 0.0879,0.31057 0.0879,0.36914 l 0,5.23828 -0.0176,1.66992 0.0176,1.86329 -0.0352,1.51171 c -1e-5,0.0586 0.0117,0.25783 0.0352,0.59766 l 1.44141,-0.54492 c 0.15234,-0.0469 0.65624,-0.19921 1.51172,-0.45703 1.08983,-0.17577 1.72265,-0.26366 1.89844,-0.26367 1.17186,10e-6 2.22655,0.18751 3.16406,0.5625 0.5742,0.23438 1.14256,0.62696 1.70508,1.17773 0.56248,0.53907 0.9785,1.11329 1.24804,1.72266 0.46874,1.11329 0.70311,2.07422 0.70313,2.88281 -2e-5,1.27735 -0.0821,2.16211 -0.24609,2.6543 -0.39846,1.17187 -0.88479,2.09765 -1.45899,2.77734 -0.57423,0.67969 -1.37697,1.25977 -2.4082,1.74023 -1.03126,0.48047 -2.12697,0.72071 -3.28711,0.72071 -1.06642,0 -2.07423,-0.19922 -3.02344,-0.59766 -0.94922,-0.39844 -1.48243,-0.59766 -1.59961,-0.59766 -0.36328,0 -0.82617,0.48047 -1.38867,1.44141 l -0.50977,-0.0176 c -0.0469,-0.78515 -0.0703,-1.75195 -0.0703,-2.90039 l 0.0352,-2.61914 -0.0176,-1.33594 0.0352,-3.83203 -0.0352,-0.73828 0.0703,-1.81055 0,-1.54687 0.0176,-0.63281 c 0,-0.12889 -0.006,-0.63866 -0.0176,-1.5293 l 0,-1.05469 c 0.0352,-2.03904 -0.0527,-3.21677 -0.26367,-3.5332 -0.33985,-0.50389 -1.07227,-0.93748 -2.19726,-1.30078 m 8.3496,21.63867 c 1.78124,0 3.13476,-0.49805 4.06055,-1.49414 0.93749,-1.00781 1.40624,-2.50195 1.40625,-4.48242 -1e-5,-1.8164 -0.52736,-3.2871 -1.58203,-4.41211 -1.0547,-1.12499 -2.35548,-1.68749 -3.90234,-1.6875 -1.12501,10e-6 -2.06837,0.18165 -2.83008,0.54492 -0.45704,0.22267 -0.71485,0.42775 -0.77344,0.61523 -0.0469,0.18752 -0.0703,1.44142 -0.0703,3.76172 -1e-5,2.75391 0.0586,4.36524 0.17578,4.83399 0.19921,0.72656 0.56249,1.24805 1.08984,1.56445 0.83203,0.50391 1.64062,0.75586 2.42578,0.75586"
       id="text3601"
       inkscape:connector-curvature="0" />
    <path
       style="font-size:36px;font-style:normal;font-variant:normal;font-weight:normal;font-stretch:normal;text-align:start;line-height:100%;text-anchor:start;fill:#1a571a;fill-opacity:1;fill-rule:nonzero;stroke:none;stroke-width:3;marker:none;visibility:visible;display:inline;overflow:visible;font-family:Garamond"
       d="m 413.07297,273.06641 c 2.91796,0.0703 4.47069,0.10548 4.6582,0.10547 0.0234,0.25782 0.0351,0.45118 0.0352,0.58007 -10e-6,0.15236 -0.0176,0.38088 -0.0527,0.68555 -0.29298,0.0469 -0.5918,0.0703 -0.89648,0.0703 l -0.66797,0 c -1.45313,1e-5 -2.46095,0.0528 -3.02344,0.15821 -0.0234,0.26954 -0.0352,0.47462 -0.0351,0.61523 -1e-5,0.0586 0.006,0.1465 0.0176,0.26367 0.0586,1.83985 0.0879,2.95314 0.0879,3.33985 l -0.0351,4.51757 c -1e-5,0.66798 0.11132,1.22462 0.33398,1.66993 0.1289,0.25781 0.36914,0.46289 0.72071,0.61523 0.22264,0.10547 0.76171,0.21094 1.61718,0.31641 0.64452,0.0937 1.07812,0.1582 1.30078,0.19336 -1e-5,0.24609 -0.0176,0.43359 -0.0527,0.5625 l -0.24609,0.0176 c -0.56251,-0.0351 -1.29493,-0.0644 -2.19727,-0.0879 l -1.30078,-0.0527 -4.42969,0.14062 -0.58008,0 -0.0176,-0.54492 c 0.17578,-0.0351 0.30468,-0.0644 0.38671,-0.0879 1.00781,-0.1875 1.6582,-0.39844 1.95118,-0.63281 0.11718,-0.0937 0.19921,-0.26367 0.24609,-0.50977 0.0234,-0.14062 0.0351,-0.79687 0.0352,-1.96875 -10e-6,-3.33983 -0.0293,-6.00585 -0.0879,-7.99804 -0.3047,-0.0937 -0.77345,-0.15234 -1.40625,-0.17578 -0.23438,10e-6 -0.60352,-0.0234 -1.10743,-0.0703 l -0.0351,-0.19336 c 0,-0.14061 0.0586,-0.2578 0.17578,-0.35156 0.0469,-0.0469 0.53906,-0.29296 1.47656,-0.73828 0.36328,-0.16405 0.62109,-0.36913 0.77344,-0.61524 0.082,-0.12889 0.1289,-0.39842 0.14062,-0.80859 0.0117,-0.18748 0.0469,-0.50975 0.10547,-0.9668 0.14062,-1.20701 0.25195,-1.95115 0.33399,-2.23242 0.21093,-0.78514 0.56249,-1.56443 1.05468,-2.33789 0.5039,-0.78513 1.10742,-1.47068 1.81055,-2.05664 0.51562,-0.42185 1.0957,-0.73826 1.74024,-0.94922 0.65624,-0.21091 1.40038,-0.31638 2.23242,-0.3164 1.11327,2e-5 1.92772,0.18166 2.44336,0.54492 0.35155,0.24611 0.52733,0.56252 0.52734,0.94922 -10e-6,0.32814 -0.12306,0.60939 -0.36914,0.84375 -0.24611,0.23439 -0.55079,0.35158 -0.91406,0.35156 -0.44533,2e-5 -0.9258,-0.11131 -1.44141,-0.33399 -0.97267,-0.38669 -1.52345,-0.59763 -1.65234,-0.63281 -0.22267,-0.0586 -0.45118,-0.0879 -0.68555,-0.0879 -0.64454,2e-5 -1.23634,0.2051 -1.77539,0.61524 -0.52735,0.41017 -0.86133,0.91408 -1.00195,1.51172 -0.14063,0.59767 -0.21095,1.93947 -0.21094,4.02539 -1e-5,0.75001 0.006,1.43556 0.0176,2.05664"
       id="text3621"
       inkscape:connector-curvature="0" />
    <path
       style="font-size:48px;font-style:normal;font-variant:normal;font-weight:normal;font-stretch:normal;text-align:start;line-height:100%;text-anchor:start;fill:#1a571a;fill-opacity:1;fill-rule:nonzero;stroke:none;stroke-width:3;marker:none;visibility:visible;display:inline;overflow:visible;font-family:NWCV15"
       d="m 429.77805,277.37891 0,-5.17969 -2.64844,0.58594 0,5.17968 2.64844,-0.58593 m 3.07031,-0.70313 0,3.77344 -1.875,0.44531 0,6.77344 -1.19531,0 0,-6.53906 -2.64844,0.63281 0,6.75 -1.14844,0 0,-6.46875 -1.875,0.42187 0,-3.72656 c 1.25,0 1.875,-0.16406 1.875,-0.49219 l 0,-5.17968 -1.875,0.46875 0,-3.63282 1.875,-0.49218 0.0469,-6.91407 1.10156,0 0,6.63282 2.64844,-0.58594 0,-7.05469 1.19531,0 0,6.77344 1.875,-0.42188 0,3.63282 -1.875,0.44531 0,5.17969 1.875,-0.42188"
       id="text3627"
       inkscape:connector-curvature="0" />
    <path
       style="font-size:36px;font-style:normal;font-variant:normal;font-weight:normal;font-stretch:normal;text-align:start;line-height:100%;text-anchor:start;fill:#1a571a;fill-opacity:1;fill-rule:nonzero;stroke:none;stroke-width:3;marker:none;visibility:visible;display:inline;overflow:visible;font-family:Garamond"
       d="m 352.02771,389.15619 c -0.14063,-0.0703 -0.5918,-0.26367 -1.35352,-0.58008 -0.89062,-0.57422 -1.45312,-1.00195 -1.6875,-1.2832 -0.23437,-0.28125 -0.35156,-0.5918 -0.35156,-0.93164 0,-0.30469 0.0879,-0.55078 0.26367,-0.73828 0.25781,-0.26953 0.76758,-0.52735 1.5293,-0.77344 0.76172,-0.24609 1.38867,-0.48633 1.88086,-0.7207 -0.15235,-0.10547 -0.39258,-0.25781 -0.7207,-0.45704 -1.7461,-1.07812 -2.61915,-2.57225 -2.61914,-4.48242 -10e-6,-1.5703 0.55078,-2.89452 1.65234,-3.97265 1.11328,-1.08983 2.5371,-1.63476 4.27148,-1.63477 0.78515,10e-6 1.50585,0.11134 2.16211,0.33398 0.37499,0.11721 0.93163,0.41017 1.66993,0.87891 0.46873,0.29298 0.74412,0.45704 0.82617,0.49219 0.18749,0.0586 0.39842,0.0879 0.63281,0.0879 0.19921,10e-6 0.67967,-0.0469 1.44141,-0.14063 0.77342,-0.10545 1.23045,-0.15819 1.37109,-0.1582 0.26952,10e-6 0.49217,0.0527 0.66797,0.1582 0.14061,0.23439 0.21092,0.62697 0.21094,1.17774 -2e-5,0.18751 -0.0528,0.32813 -0.15821,0.42187 -0.0938,0.0938 -0.23439,0.14064 -0.42187,0.14063 -0.32814,1e-5 -0.87306,-0.0996 -1.63477,-0.29883 -0.75001,-0.21093 -1.20704,-0.31639 -1.37109,-0.31641 -0.0586,2e-5 -0.16994,0.0117 -0.33399,0.0352 0.5039,1.00782 0.75585,1.92774 0.75586,2.75977 -10e-6,0.83204 -0.26368,1.69336 -0.79101,2.58398 -0.52736,0.89063 -1.25392,1.57032 -2.17969,2.03906 -0.92579,0.46876 -1.86329,0.70313 -2.8125,0.70313 -0.0703,0 -0.26954,-0.006 -0.59766,-0.0176 -1.07813,0 -2.06836,0.26953 -2.9707,0.80859 -0.4336,0.26954 -0.65039,0.52149 -0.65039,0.75586 0,0.2461 0.21093,0.48633 0.63281,0.72071 1.11328,0.59765 3.22265,0.94336 6.32813,1.03711 1.34764,0.0469 2.39647,0.24023 3.14648,0.58007 0.74999,0.33985 1.31249,0.83789 1.6875,1.49414 0.38671,0.66797 0.58006,1.35352 0.58008,2.05664 -2e-5,0.94922 -0.32228,1.82812 -0.9668,2.63672 -0.64454,0.80859 -1.62306,1.46484 -2.93554,1.96875 -1.31251,0.5039 -2.81837,0.75585 -4.51758,0.75586 -1.87501,-10e-6 -3.32227,-0.22852 -4.3418,-0.68554 -1.01953,-0.45704 -1.74609,-0.95509 -2.17969,-1.49414 -0.42187,-0.53907 -0.63281,-1.07228 -0.63281,-1.59961 0,-0.45704 0.23438,-1.03126 0.70313,-1.72266 0.46875,-0.67969 1.4414,-1.39453 2.91797,-2.14453 0.43359,-0.22266 0.73241,-0.38086 0.89648,-0.47461 m -0.70313,-10.03711 c 0,1.05469 0.1582,1.93946 0.47461,2.6543 0.31641,0.70313 0.75,1.23047 1.30079,1.58203 0.55077,0.33985 1.10741,0.50977 1.66992,0.50976 1.01952,10e-6 1.86327,-0.38671 2.53125,-1.16015 0.67967,-0.78515 1.01952,-1.97461 1.01953,-3.56836 -10e-6,-1.60546 -0.35157,-2.82421 -1.05469,-3.65625 -0.70313,-0.84374 -1.55274,-1.26561 -2.54883,-1.26563 -1.11328,2e-5 -1.95703,0.39845 -2.53125,1.19532 -0.57422,0.79688 -0.86133,2.03321 -0.86133,3.70898 m -0.58007,16.27734 c 1.0664,0.82031 2.41405,1.23046 4.04297,1.23047 1.16014,-10e-6 2.31444,-0.18751 3.46289,-0.5625 1.16014,-0.36329 2.00389,-0.89063 2.53125,-1.58203 0.53904,-0.67969 0.80858,-1.32422 0.80859,-1.93359 -1e-5,-0.37501 -0.0938,-0.75001 -0.28125,-1.125 -0.18751,-0.36329 -0.44533,-0.66797 -0.77344,-0.91407 -0.31642,-0.23437 -0.73829,-0.42187 -1.26562,-0.5625 -0.37501,-0.10547 -0.90822,-0.18164 -1.59961,-0.22851 -1.96876,-0.15235 -3.17579,-0.22852 -3.6211,-0.22852 -1.25391,0 -2.37305,0.42188 -3.35742,1.26563 -0.76172,0.65624 -1.14258,1.4414 -1.14258,2.35547 0,0.84374 0.39844,1.60546 1.19532,2.28515"
       id="text3613"
       inkscape:connector-curvature="0" />
    <path
       style="font-size:48px;font-style:normal;font-variant:normal;font-weight:normal;font-stretch:normal;text-align:start;line-height:100%;text-anchor:start;fill:#1a571a;fill-opacity:1;fill-rule:nonzero;stroke:none;stroke-width:3;marker:none;visibility:visible;display:inline;overflow:visible;font-family:NWCV15"
       d="m 372.54724,377.80853 0,-5.17968 -2.64844,0.58593 0,5.17969 2.64844,-0.58594 m 3.07031,-0.70312 0,3.77344 -1.875,0.44531 0,6.77344 -1.19531,0 0,-6.53907 -2.64844,0.63282 0,6.75 -1.14843,0 0,-6.46875 -1.875,0.42187 0,-3.72656 c 1.24999,-1e-5 1.87499,-0.16407 1.875,-0.49219 l 0,-5.17969 -1.875,0.46875 0,-3.63281 1.875,-0.49219 0.0469,-6.91406 1.10156,0 0,6.63281 2.64844,-0.58593 0,-7.05469 1.19531,0 0,6.77344 1.875,-0.42188 0,3.63281 -1.875,0.44532 0,5.17968 1.875,-0.42187"
       id="text3641"
       inkscape:connector-curvature="0" />
    <path
       style="font-size:36px;font-style:normal;font-variant:normal;font-weight:normal;font-stretch:normal;text-align:start;line-height:100%;text-anchor:start;fill:#1a571a;fill-opacity:1;fill-rule:nonzero;stroke:none;stroke-width:3;marker:none;visibility:visible;display:inline;overflow:visible;font-family:Garamond"
       d="m 311.38254,399.34573 0.0176,-0.50976 -0.0176,-2.05664 0.0176,-3.88477 c -2e-5,-1.0781 -0.1172,-1.76365 -0.35157,-2.05664 -0.23438,-0.29295 -0.91993,-0.59177 -2.05664,-0.89648 -0.082,-0.0234 -0.21094,-0.0586 -0.38672,-0.10547 l 0,-0.19336 c -10e-6,-0.11717 0.0117,-0.24607 0.0352,-0.38672 1.59374,-0.16404 2.96483,-0.43943 4.11328,-0.82617 l 0.89649,-0.0176 c 0.0469,0.7969 0.0703,1.68752 0.0703,2.67187 l -0.0703,6.76758 0.12304,7.62891 -0.0527,4.06055 c -2e-5,0.83203 0.0586,1.30078 0.17578,1.40625 0.23436,0.23437 0.74998,0.35742 1.54687,0.36914 0.16405,0 0.38671,0.0117 0.66797,0.0351 l 0,0.31641 c -10e-6,0.082 -0.006,0.16992 -0.0176,0.26367 -0.3633,0.082 -0.7383,0.1582 -1.125,0.22852 l -2.54883,0.49218 c -0.37502,0.0703 -0.67384,0.10547 -0.89649,0.10547 l 0,-1.6875 c -0.19923,0.0586 -0.50978,0.17579 -0.93164,0.35157 -1.82813,0.77343 -3.50977,1.16015 -5.04492,1.16015 -0.92579,0 -1.86915,-0.29883 -2.83008,-0.89648 -0.96094,-0.60938 -1.69922,-1.45313 -2.21484,-2.53125 -0.51563,-1.07812 -0.77344,-2.17968 -0.77344,-3.30469 0,-1.00781 0.16992,-1.96874 0.50977,-2.88281 0.33984,-0.92577 0.78515,-1.69335 1.33593,-2.30274 0.35156,-0.39842 0.84961,-0.791 1.49414,-1.17773 0.64453,-0.39843 1.17773,-0.65038 1.59961,-0.75586 1.04297,-0.26952 1.74023,-0.40428 2.0918,-0.4043 1.58202,2e-5 2.8828,0.23439 3.90234,0.70313 0.3164,0.15235 0.55663,0.25782 0.72071,0.3164 m 0.0176,10.86328 c 0.0469,-0.78515 0.0703,-2.40233 0.0703,-4.85156 -1e-5,-2.07421 -0.0996,-3.38085 -0.29883,-3.91992 -0.18751,-0.55077 -0.66798,-1.06639 -1.44141,-1.54687 -0.77344,-0.49218 -1.64063,-0.73827 -2.60156,-0.73829 -1.34766,2e-5 -2.49024,0.5215 -3.42773,1.56446 -0.93751,1.04298 -1.40626,2.58399 -1.40625,4.62304 -10e-6,1.79298 0.5039,3.22266 1.51172,4.28907 1.01952,1.0664 2.28514,1.59961 3.79687,1.59961 0.86718,0 1.65819,-0.11719 2.37305,-0.35157 0.71483,-0.23437 1.18944,-0.45703 1.42383,-0.66797"
       id="text3609"
       inkscape:connector-curvature="0" />
    <path
       style="font-size:48px;font-style:normal;font-variant:normal;font-weight:normal;font-stretch:normal;text-align:start;line-height:100%;text-anchor:start;fill:#1a571a;fill-opacity:1;fill-rule:nonzero;stroke:none;stroke-width:3;marker:none;visibility:visible;display:inline;overflow:visible;font-family:NWCV15"
       d="m 323.78293,403.32104 0,-5.17968 -2.64844,0.58593 0,5.17969 2.64844,-0.58594 m 3.07031,-0.70312 0,3.77344 -1.875,0.44531 0,6.77344 -1.19531,0 0,-6.53907 -2.64844,0.63282 0,6.75 -1.14844,0 0,-6.46875 -1.875,0.42187 0,-3.72656 c 1.25,0 1.875,-0.16407 1.875,-0.49219 l 0,-5.17969 -1.875,0.46875 0,-3.63281 1.875,-0.49219 0.0469,-6.91406 1.10156,0 0,6.63281 2.64844,-0.58593 0,-7.05469 1.19531,0 0,6.77344 1.875,-0.42188 0,3.63281 -1.875,0.44532 0,5.17968 1.875,-0.42187"
       id="text3645"
       inkscape:connector-curvature="0" />
    <path
       style="font-size:36px;font-style:normal;font-variant:normal;font-weight:normal;font-stretch:normal;text-align:start;line-height:100%;text-anchor:start;fill:#1a571a;fill-opacity:1;fill-rule:nonzero;stroke:none;stroke-width:3;marker:none;visibility:visible;display:inline;overflow:visible;font-family:Garamond"
       d="m 284.06934,396.0603 -7.04883,0.0527 -1.33594,0 c -0.53907,10e-6 -1.08985,0.0234 -1.65234,0.0703 -0.10548,0.35157 -0.15821,0.59181 -0.15821,0.7207 l 0.0176,0.17578 0,0.17579 -0.0176,0.86132 c 0,0.71485 0.22266,1.59376 0.66797,2.63672 0.45703,1.03126 1.10156,1.82227 1.9336,2.37305 0.84374,0.53906 1.89257,0.82617 3.14648,0.86133 0.66796,-0.0352 1.20116,-0.11719 1.59961,-0.2461 0.39843,-0.1289 0.96093,-0.42773 1.6875,-0.89648 l 1.26562,-1.03711 0.10547,0.70312 c -10e-6,0.082 -0.006,0.16993 -0.0176,0.26368 -0.52736,0.66797 -1.19533,1.2539 -2.00391,1.75781 -0.80861,0.50391 -1.62892,0.87305 -2.46094,1.10742 -0.39845,0.10547 -1.05469,0.1582 -1.96875,0.1582 -0.83204,0 -1.65235,-0.16992 -2.46094,-0.50976 -1.19531,-0.51563 -2.13867,-1.3418 -2.83007,-2.47852 -0.67969,-1.14843 -1.01954,-2.5371 -1.01954,-4.16601 0,-0.51562 0.0937,-1.17773 0.28125,-1.98633 0.19922,-0.80859 0.55078,-1.66991 1.05469,-2.58399 0.33984,-0.62108 0.75586,-1.13084 1.24805,-1.52929 0.70312,-0.56249 1.31835,-0.95507 1.8457,-1.17774 0.76171,-0.31639 1.64648,-0.47459 2.6543,-0.47461 1.08983,2e-5 1.98046,0.19924 2.67187,0.59766 0.93749,0.52736 1.63476,1.20704 2.0918,2.03906 0.46874,0.83204 0.70311,1.59376 0.70313,2.28516 l 0,0.24609 m -9.8086,-0.63281 0.82617,0 c 0.59765,1e-5 2.3789,-0.0937 5.34375,-0.28125 0.46874,-0.0234 0.75585,-0.0703 0.86133,-0.14062 0.21093,-0.22265 0.3164,-0.42187 0.31641,-0.59766 -10e-6,-0.36327 -0.1172,-0.77343 -0.35156,-1.23047 -0.23439,-0.46874 -0.59767,-0.82616 -1.08985,-1.07227 -0.48048,-0.25779 -1.04298,-0.3867 -1.6875,-0.38671 -1.35938,1e-5 -2.44922,0.50977 -3.26953,1.52929 -0.63282,0.77345 -0.94922,1.50001 -0.94922,2.17969"
       id="text3605"
       inkscape:connector-curvature="0" />
    <path
       style="font-size:48px;font-style:normal;font-variant:normal;font-weight:normal;font-stretch:normal;text-align:start;line-height:100%;text-anchor:start;fill:#1a571a;fill-opacity:1;fill-rule:nonzero;stroke:none;stroke-width:3;marker:none;visibility:visible;display:inline;overflow:visible;font-family:NWCV15"
       d="m 287.47559,398.8551 0,6.5625 1.14843,-1.33593 c 0.45313,-0.54688 0.875,-1.09376 1.26563,-1.64063 0.18749,-0.28125 0.35937,-0.54688 0.51562,-0.79687 0.125,-0.23438 0.27344,-0.50782 0.44532,-0.82032 0.12499,-0.26562 0.24999,-0.55468 0.375,-0.86718 0.0937,-0.1875 0.14062,-0.38282 0.14062,-0.58594 0,-0.3125 -0.0469,-0.625 -0.14062,-0.9375 -0.0938,-0.32812 -0.21095,-0.57812 -0.35157,-0.75 -0.125,-0.1875 -0.29688,-0.32812 -0.51562,-0.42188 -0.21876,-0.0625 -0.46094,-0.10937 -0.72656,-0.14062 -0.46876,0 -0.94532,0.21875 -1.42969,0.65625 -0.48438,0.42188 -0.72657,0.78125 -0.72656,1.07812 m -1.19532,9.16407 0,-26.29688 1.19532,0 0,15.35156 c 1.24999,-0.98437 2.42187,-1.47655 3.51562,-1.47656 0.5,1e-5 0.97656,0.14063 1.42969,0.42188 0.48437,0.3125 0.8828,0.72656 1.19531,1.24218 0.29687,0.54688 0.44531,1.09376 0.44531,1.64063 0,0.875 -0.38282,1.75781 -1.14843,2.64844 -0.40626,0.48437 -0.88282,1.03124 -1.42969,1.64062 -0.54688,0.60937 -1.03126,1.10156 -1.45313,1.47656 l -3.75,3.35157"
       id="text3719"
       inkscape:connector-curvature="0" />
    <path
       style="font-size:36px;font-style:normal;font-variant:normal;font-weight:normal;font-stretch:normal;text-align:start;line-height:100%;text-anchor:start;fill:#1a571a;fill-opacity:1;fill-rule:nonzero;stroke:none;stroke-width:3;marker:none;visibility:visible;display:inline;overflow:visible;font-family:Garamond"
       d="m 302.85764,383.48944 1.54687,0 -12.39258,29.93555 -1.52929,0 12.375,-29.93555"
       id="text3735"
       inkscape:connector-curvature="0" />
    <path
       style="font-size:36px;font-style:normal;font-variant:normal;font-weight:normal;font-stretch:normal;text-align:start;line-height:100%;text-anchor:start;fill:#1a571a;fill-opacity:1;fill-rule:nonzero;stroke:none;stroke-width:3;marker:none;visibility:visible;display:inline;overflow:visible;font-family:Garamond"
       d="m 407.50635,344.29404 0.0176,1.14257 c -0.91408,0.97266 -1.81642,1.65235 -2.70704,2.03907 -0.89063,0.38672 -1.93946,0.58008 -3.14648,0.58008 -1.31251,0 -2.4961,-0.33985 -3.55078,-1.01954 -1.05469,-0.6914 -1.86914,-1.66406 -2.44336,-2.91796 -0.5625,-1.25391 -0.84375,-2.48437 -0.84375,-3.69141 0,-1.32421 0.33984,-2.57226 1.01953,-3.74414 0.6914,-1.18358 1.59961,-2.06249 2.72461,-2.63672 1.13671,-0.58592 2.56054,-0.87889 4.27148,-0.87891 1.64062,2e-5 2.88866,0.28127 3.74415,0.84375 0.48045,0.32814 0.72068,0.75002 0.7207,1.26563 -2e-5,0.37501 -0.12306,0.68556 -0.36914,0.93164 -0.24611,0.2461 -0.56252,0.36915 -0.94922,0.36914 -0.58595,10e-6 -1.23048,-0.36327 -1.93359,-1.08984 -0.43361,-0.4453 -0.82619,-0.74999 -1.17774,-0.91407 -0.35157,-0.17576 -0.74415,-0.26365 -1.17773,-0.26367 -1.04298,2e-5 -1.91017,0.42775 -2.60157,1.2832 -0.96094,1.21877 -1.44141,2.74806 -1.4414,4.5879 -1e-5,1.89844 0.49218,3.41016 1.47656,4.53515 0.98437,1.125 2.1328,1.6875 3.44531,1.6875 0.91406,0 1.72265,-0.14648 2.42578,-0.43945 0.71484,-0.30469 1.54687,-0.86133 2.4961,-1.66992"
       id="text3617"
       inkscape:connector-curvature="0" />
    <path
       style="font-size:48px;font-style:normal;font-variant:normal;font-weight:normal;font-stretch:normal;text-align:start;line-height:100%;text-anchor:start;fill:#1a571a;fill-opacity:1;fill-rule:nonzero;stroke:none;stroke-width:3;marker:none;visibility:visible;display:inline;overflow:visible;font-family:NWCV15"
       d="m 416.55295,338.92294 0,-5.17968 -2.64844,0.58593 0,5.17969 2.64844,-0.58594 m 3.07031,-0.70312 0,3.77344 -1.875,0.44531 0,6.77344 -1.19531,0 0,-6.53907 -2.64844,0.63282 0,6.75 -1.14844,0 0,-6.46875 -1.875,0.42187 0,-3.72656 c 1.25,-1e-5 1.875,-0.16407 1.875,-0.49219 l 0,-5.17969 -1.875,0.46875 0,-3.63281 1.875,-0.49219 0.0469,-6.91406 1.10156,0 0,6.63281 2.64844,-0.58593 0,-7.05469 1.19531,0 0,6.77344 1.875,-0.42188 0,3.63281 -1.875,0.44532 0,5.17968 1.875,-0.42187"
       id="text3637"
       inkscape:connector-curvature="0" />
    <flowRoot
       xml:space="preserve"
       id="flowRoot3597"
       style="fill:black;stroke:none;stroke-opacity:1;stroke-width:1px;stroke-linejoin:miter;stroke-linecap:butt;fill-opacity:1;font-family:Envy Code R;font-style:normal;font-weight:normal;font-size:28px;line-height:125%;letter-spacing:0px;word-spacing:0px;-inkscape-font-specification:Envy Code R;font-stretch:normal;font-variant:normal"><flowRegion
         id="flowRegion3599"><rect
           id="rect3601"
           width="69.918701"
           height="69.918701"
           x="430.89432"
           y="64.227646" /></flowRegion><flowPara
         id="flowPara3603"></flowPara></flowRoot>  </g>
</svg>
